<?xml version="1.0" encoding="UTF-8"?>
<svg xmlns="http://www.w3.org/2000/svg" viewBox="0 0 1024 1024" role="img">
  <style>
    :root {
      --bg: #2f3134;
      --toast: #efeedd;
      --check: #efeedd;
      --line: var(--toast);
    }
  </style>
  <rect width="100%" height="100%" fill="var(--bg)"/>
  <g id="toast" fill="var(--toast)">
    <path d="M 236.00,215.00 L 218.00,230.00 L 210.00,239.00 L 208.00,240.00 L 199.00,252.00 L 197.00,253.00 L 189.00,265.00 L 181.00,281.00 L 177.00,293.00 L 177.00,297.00 L 175.00,303.00 L 175.00,309.00 L 174.00,310.00 L 174.00,338.00 L 175.00,339.00 L 175.00,344.00 L 176.00,345.00 L 177.00,353.00 L 183.00,369.00 L 189.00,379.00 L 208.00,400.00 L 216.00,411.00 L 226.00,430.00 L 230.00,442.00 L 230.00,446.00 L 231.00,447.00 L 232.00,455.00 L 233.00,456.00 L 233.00,461.00 L 234.00,462.00 L 235.00,481.00 L 236.00,482.00 L 236.00,521.00 L 235.00,522.00 L 234.00,567.00 L 233.00,568.00 L 233.00,587.00 L 232.00,588.00 L 230.00,643.00 L 229.00,644.00 L 229.00,677.00 L 228.00,678.00 L 229.00,740.00 L 230.00,741.00 L 230.00,752.00 L 231.00,753.00 L 232.00,767.00 L 233.00,768.00 L 233.00,773.00 L 234.00,774.00 L 237.00,791.00 L 245.00,811.00 L 255.00,826.00 L 263.00,834.00 L 270.00,839.00 L 286.00,847.00 L 310.00,854.00 L 330.00,856.00 L 331.00,857.00 L 343.00,857.00 L 344.00,858.00 L 401.00,859.00 L 402.00,860.00 L 442.00,860.00 L 443.00,861.00 L 587.00,861.00 L 588.00,860.00 L 625.00,860.00 L 626.00,859.00 L 679.00,858.00 L 680.00,857.00 L 698.00,856.00 L 699.00,855.00 L 704.00,855.00 L 714.00,852.00 L 718.00,852.00 L 735.00,846.00 L 747.00,840.00 L 758.00,832.00 L 771.00,816.00 L 778.00,801.00 L 783.00,784.00 L 784.00,775.00 L 785.00,774.00 L 786.00,762.00 L 787.00,761.00 L 787.00,753.00 L 788.00,752.00 L 788.00,743.00 L 789.00,742.00 L 789.00,715.00 L 790.00,714.00 L 789.00,645.00 L 788.00,644.00 L 787.00,606.00 L 786.00,605.00 L 786.00,591.00 L 785.00,590.00 L 785.00,572.00 L 784.00,571.00 L 784.00,554.00 L 783.00,553.00 L 783.00,530.00 L 782.00,529.00 L 782.00,483.00 L 783.00,482.00 L 784.00,462.00 L 785.00,461.00 L 788.00,443.00 L 793.00,431.00 L 794.00,426.00 L 796.00,424.00 L 798.00,418.00 L 801.00,415.00 L 801.00,413.00 L 810.00,401.00 L 828.00,381.00 L 836.00,368.00 L 837.00,363.00 L 840.00,357.00 L 842.00,345.00 L 843.00,344.00 L 843.00,337.00 L 844.00,336.00 L 844.00,316.00 L 843.00,315.00 L 843.00,308.00 L 842.00,307.00 L 842.00,302.00 L 841.00,301.00 L 840.00,294.00 L 834.00,277.00 L 824.00,259.00 L 822.00,257.00 L 808.00,270.00 L 820.00,292.00 L 821.00,299.00 L 824.00,307.00 L 824.00,313.00 L 825.00,314.00 L 825.00,338.00 L 824.00,339.00 L 823.00,349.00 L 819.00,360.00 L 808.00,376.00 L 806.00,377.00 L 794.00,391.00 L 783.00,407.00 L 778.00,417.00 L 778.00,419.00 L 776.00,421.00 L 770.00,438.00 L 769.00,446.00 L 767.00,451.00 L 767.00,456.00 L 766.00,457.00 L 766.00,463.00 L 765.00,464.00 L 765.00,474.00 L 764.00,475.00 L 764.00,542.00 L 765.00,543.00 L 765.00,566.00 L 766.00,567.00 L 767.00,603.00 L 768.00,604.00 L 769.00,640.00 L 770.00,641.00 L 771.00,724.00 L 770.00,725.00 L 769.00,753.00 L 768.00,754.00 L 768.00,762.00 L 767.00,763.00 L 767.00,768.00 L 765.00,774.00 L 765.00,779.00 L 759.00,798.00 L 752.00,810.00 L 741.00,821.00 L 729.00,828.00 L 708.00,835.00 L 698.00,836.00 L 697.00,837.00 L 691.00,837.00 L 690.00,838.00 L 681.00,838.00 L 680.00,839.00 L 631.00,840.00 L 630.00,841.00 L 601.00,841.00 L 600.00,842.00 L 547.00,842.00 L 546.00,843.00 L 430.00,842.00 L 429.00,841.00 L 394.00,841.00 L 393.00,840.00 L 343.00,839.00 L 342.00,838.00 L 324.00,837.00 L 323.00,836.00 L 318.00,836.00 L 317.00,835.00 L 304.00,833.00 L 290.00,828.00 L 288.00,826.00 L 281.00,823.00 L 267.00,810.00 L 261.00,801.00 L 254.00,781.00 L 252.00,766.00 L 251.00,765.00 L 251.00,760.00 L 250.00,759.00 L 250.00,752.00 L 249.00,751.00 L 248.00,724.00 L 247.00,723.00 L 248.00,640.00 L 249.00,639.00 L 249.00,619.00 L 250.00,618.00 L 250.00,599.00 L 251.00,598.00 L 251.00,582.00 L 252.00,581.00 L 252.00,566.00 L 253.00,565.00 L 253.00,539.00 L 254.00,538.00 L 254.00,472.00 L 253.00,471.00 L 252.00,455.00 L 251.00,454.00 L 249.00,441.00 L 247.00,437.00 L 247.00,434.00 L 244.00,425.00 L 236.00,409.00 L 236.00,407.00 L 225.00,391.00 L 206.00,370.00 L 202.00,364.00 L 198.00,356.00 L 194.00,343.00 L 194.00,339.00 L 193.00,338.00 L 193.00,310.00 L 194.00,309.00 L 195.00,300.00 L 200.00,285.00 L 202.00,283.00 L 203.00,279.00 L 209.00,269.00 L 222.00,253.00 L 224.00,252.00 L 231.00,244.00 L 248.00,230.00 L 275.00,212.00 L 298.00,200.00 L 300.00,200.00 L 321.00,190.00 L 359.00,177.00 L 362.00,177.00 L 383.00,171.00 L 387.00,171.00 L 392.00,169.00 L 406.00,167.00 L 407.00,166.00 L 413.00,166.00 L 419.00,164.00 L 441.00,162.00 L 442.00,161.00 L 451.00,161.00 L 452.00,160.00 L 461.00,160.00 L 462.00,159.00 L 478.00,159.00 L 479.00,158.00 L 538.00,158.00 L 539.00,159.00 L 555.00,159.00 L 556.00,160.00 L 582.00,162.00 L 583.00,163.00 L 596.00,164.00 L 597.00,165.00 L 602.00,165.00 L 603.00,166.00 L 608.00,166.00 L 609.00,167.00 L 633.00,171.00 L 634.00,172.00 L 653.00,176.00 L 660.00,179.00 L 663.00,179.00 L 666.00,181.00 L 669.00,181.00 L 687.00,187.00 L 702.00,194.00 L 709.00,196.00 L 718.00,201.00 L 720.00,201.00 L 722.00,203.00 L 726.00,204.00 L 730.00,207.00 L 737.00,210.00 L 751.00,219.00 L 757.00,214.00 L 758.00,212.00 L 764.00,208.00 L 765.00,205.00 L 746.00,193.00 L 742.00,192.00 L 740.00,190.00 L 713.00,177.00 L 701.00,173.00 L 696.00,170.00 L 688.00,168.00 L 685.00,166.00 L 676.00,164.00 L 666.00,160.00 L 659.00,159.00 L 655.00,157.00 L 648.00,156.00 L 644.00,154.00 L 640.00,154.00 L 635.00,152.00 L 631.00,152.00 L 630.00,151.00 L 626.00,151.00 L 625.00,150.00 L 621.00,150.00 L 615.00,148.00 L 610.00,148.00 L 609.00,147.00 L 604.00,147.00 L 597.00,145.00 L 591.00,145.00 L 590.00,144.00 L 575.00,143.00 L 574.00,142.00 L 552.00,141.00 L 551.00,140.00 L 534.00,140.00 L 533.00,139.00 L 485.00,139.00 L 484.00,140.00 L 451.00,141.00 L 450.00,142.00 L 441.00,142.00 L 440.00,143.00 L 418.00,145.00 L 417.00,146.00 L 412.00,146.00 L 411.00,147.00 L 406.00,147.00 L 405.00,148.00 L 390.00,150.00 L 389.00,151.00 L 381.00,152.00 L 380.00,153.00 L 357.00,158.00 L 353.00,160.00 L 350.00,160.00 L 315.00,172.00 L 305.00,177.00 L 298.00,179.00 L 287.00,185.00 L 285.00,185.00 L 283.00,187.00 L 277.00,189.00 L 268.00,195.00 L 266.00,195.00 Z"/>
    <path d="M 207.00,191.00 L 206.00,193.00 L 192.00,204.00 L 176.00,221.00 L 173.00,226.00 L 171.00,227.00 L 160.00,243.00 L 149.00,264.00 L 149.00,266.00 L 143.00,280.00 L 143.00,283.00 L 140.00,292.00 L 140.00,296.00 L 139.00,297.00 L 138.00,311.00 L 137.00,312.00 L 137.00,338.00 L 138.00,339.00 L 138.00,347.00 L 139.00,348.00 L 139.00,353.00 L 140.00,354.00 L 142.00,366.00 L 148.00,379.00 L 148.00,381.00 L 158.00,399.00 L 165.00,408.00 L 166.00,408.00 L 178.00,421.00 L 186.00,432.00 L 194.00,449.00 L 194.00,452.00 L 197.00,461.00 L 198.00,474.00 L 199.00,475.00 L 200.00,512.00 L 199.00,513.00 L 199.00,539.00 L 198.00,540.00 L 198.00,559.00 L 197.00,560.00 L 197.00,578.00 L 196.00,579.00 L 195.00,613.00 L 194.00,614.00 L 194.00,634.00 L 193.00,635.00 L 193.00,657.00 L 192.00,658.00 L 192.00,745.00 L 193.00,746.00 L 193.00,758.00 L 194.00,759.00 L 196.00,782.00 L 197.00,783.00 L 197.00,788.00 L 198.00,789.00 L 201.00,804.00 L 203.00,808.00 L 203.00,811.00 L 209.00,825.00 L 209.00,827.00 L 212.00,831.00 L 212.00,833.00 L 223.00,849.00 L 236.00,862.00 L 247.00,870.00 L 262.00,878.00 L 264.00,878.00 L 269.00,881.00 L 280.00,885.00 L 283.00,885.00 L 287.00,887.00 L 291.00,887.00 L 296.00,889.00 L 311.00,891.00 L 312.00,892.00 L 319.00,892.00 L 320.00,893.00 L 352.00,894.00 L 353.00,895.00 L 354.00,894.00 L 355.00,895.00 L 380.00,895.00 L 381.00,896.00 L 537.00,898.00 L 538.00,897.00 L 597.00,897.00 L 598.00,896.00 L 639.00,896.00 L 640.00,895.00 L 689.00,894.00 L 690.00,893.00 L 700.00,893.00 L 701.00,892.00 L 719.00,890.00 L 720.00,889.00 L 724.00,889.00 L 725.00,888.00 L 736.00,886.00 L 755.00,879.00 L 765.00,874.00 L 780.00,864.00 L 796.00,848.00 L 805.00,835.00 L 809.00,827.00 L 809.00,825.00 L 811.00,823.00 L 820.00,793.00 L 820.00,788.00 L 821.00,787.00 L 821.00,782.00 L 823.00,775.00 L 824.00,758.00 L 825.00,757.00 L 825.00,743.00 L 826.00,742.00 L 826.00,661.00 L 825.00,660.00 L 825.00,639.00 L 824.00,638.00 L 824.00,619.00 L 823.00,618.00 L 821.00,563.00 L 820.00,562.00 L 820.00,542.00 L 819.00,541.00 L 819.00,517.00 L 818.00,516.00 L 818.00,485.00 L 819.00,484.00 L 820.00,464.00 L 825.00,446.00 L 829.00,439.00 L 830.00,435.00 L 842.00,419.00 L 854.00,407.00 L 864.00,393.00 L 874.00,371.00 L 875.00,365.00 L 877.00,361.00 L 878.00,352.00 L 879.00,351.00 L 879.00,343.00 L 880.00,342.00 L 880.00,311.00 L 879.00,310.00 L 879.00,302.00 L 878.00,301.00 L 878.00,296.00 L 876.00,291.00 L 876.00,287.00 L 868.00,264.00 L 866.00,262.00 L 866.00,260.00 L 860.00,248.00 L 852.00,235.00 L 849.00,234.00 L 843.00,239.00 L 839.00,244.00 L 847.00,256.00 L 855.00,272.00 L 861.00,289.00 L 861.00,292.00 L 863.00,297.00 L 863.00,302.00 L 864.00,303.00 L 864.00,308.00 L 865.00,309.00 L 865.00,342.00 L 864.00,343.00 L 864.00,349.00 L 863.00,350.00 L 861.00,362.00 L 858.00,371.00 L 854.00,378.00 L 854.00,380.00 L 847.00,391.00 L 824.00,417.00 L 819.00,424.00 L 811.00,440.00 L 807.00,458.00 L 806.00,459.00 L 806.00,464.00 L 805.00,465.00 L 803.00,504.00 L 804.00,505.00 L 804.00,539.00 L 805.00,540.00 L 806.00,577.00 L 807.00,578.00 L 807.00,595.00 L 808.00,596.00 L 808.00,610.00 L 809.00,611.00 L 809.00,633.00 L 810.00,634.00 L 810.00,652.00 L 811.00,653.00 L 811.00,705.00 L 812.00,706.00 L 811.00,707.00 L 812.00,708.00 L 811.00,709.00 L 811.00,712.00 L 812.00,713.00 L 811.00,715.00 L 811.00,745.00 L 810.00,746.00 L 810.00,759.00 L 809.00,760.00 L 808.00,776.00 L 807.00,777.00 L 807.00,782.00 L 806.00,783.00 L 803.00,800.00 L 799.00,812.00 L 795.00,819.00 L 795.00,821.00 L 783.00,840.00 L 781.00,841.00 L 774.00,849.00 L 765.00,856.00 L 745.00,867.00 L 724.00,874.00 L 709.00,876.00 L 708.00,877.00 L 702.00,877.00 L 701.00,878.00 L 691.00,878.00 L 690.00,879.00 L 654.00,880.00 L 653.00,881.00 L 622.00,881.00 L 621.00,882.00 L 586.00,882.00 L 585.00,883.00 L 450.00,883.00 L 449.00,882.00 L 403.00,882.00 L 402.00,881.00 L 372.00,881.00 L 371.00,880.00 L 329.00,879.00 L 328.00,878.00 L 318.00,878.00 L 317.00,877.00 L 305.00,876.00 L 296.00,873.00 L 292.00,873.00 L 282.00,869.00 L 279.00,869.00 L 262.00,861.00 L 247.00,851.00 L 246.00,849.00 L 234.00,838.00 L 223.00,821.00 L 213.00,791.00 L 213.00,787.00 L 211.00,781.00 L 211.00,775.00 L 210.00,774.00 L 210.00,768.00 L 209.00,767.00 L 209.00,759.00 L 208.00,758.00 L 207.00,721.00 L 206.00,720.00 L 207.00,653.00 L 208.00,652.00 L 208.00,630.00 L 209.00,629.00 L 209.00,614.00 L 210.00,613.00 L 211.00,578.00 L 212.00,577.00 L 212.00,554.00 L 213.00,553.00 L 213.00,532.00 L 214.00,531.00 L 214.00,478.00 L 213.00,477.00 L 213.00,467.00 L 212.00,466.00 L 212.00,460.00 L 211.00,459.00 L 208.00,444.00 L 206.00,441.00 L 206.00,438.00 L 202.00,431.00 L 202.00,429.00 L 192.00,414.00 L 185.00,406.00 L 183.00,405.00 L 171.00,390.00 L 162.00,375.00 L 162.00,373.00 L 158.00,366.00 L 158.00,363.00 L 153.00,346.00 L 153.00,340.00 L 152.00,339.00 L 152.00,313.00 L 153.00,312.00 L 154.00,297.00 L 155.00,296.00 L 157.00,285.00 L 160.00,279.00 L 161.00,274.00 L 163.00,272.00 L 163.00,270.00 L 169.00,258.00 L 177.00,245.00 L 186.00,233.00 L 188.00,232.00 L 197.00,221.00 L 218.00,202.00 L 233.00,191.00 L 242.00,186.00 L 245.00,183.00 L 266.00,172.00 L 268.00,170.00 L 270.00,170.00 L 276.00,166.00 L 282.00,164.00 L 284.00,162.00 L 286.00,162.00 L 298.00,156.00 L 303.00,155.00 L 319.00,148.00 L 327.00,146.00 L 330.00,144.00 L 333.00,144.00 L 343.00,140.00 L 347.00,140.00 L 354.00,137.00 L 357.00,137.00 L 378.00,131.00 L 397.00,128.00 L 398.00,127.00 L 403.00,127.00 L 404.00,126.00 L 409.00,126.00 L 416.00,124.00 L 422.00,124.00 L 423.00,123.00 L 438.00,122.00 L 439.00,121.00 L 448.00,121.00 L 449.00,120.00 L 458.00,120.00 L 459.00,119.00 L 473.00,119.00 L 474.00,118.00 L 539.00,118.00 L 540.00,119.00 L 555.00,119.00 L 556.00,120.00 L 585.00,122.00 L 586.00,123.00 L 592.00,123.00 L 593.00,124.00 L 599.00,124.00 L 600.00,125.00 L 617.00,127.00 L 618.00,128.00 L 633.00,130.00 L 638.00,132.00 L 642.00,132.00 L 643.00,133.00 L 658.00,136.00 L 662.00,138.00 L 669.00,139.00 L 673.00,141.00 L 676.00,141.00 L 679.00,143.00 L 688.00,145.00 L 702.00,151.00 L 705.00,151.00 L 708.00,153.00 L 720.00,157.00 L 735.00,165.00 L 737.00,165.00 L 747.00,170.00 L 749.00,172.00 L 758.00,176.00 L 768.00,183.00 L 771.00,184.00 L 782.00,192.00 L 795.00,182.00 L 766.00,163.00 L 730.00,145.00 L 728.00,145.00 L 710.00,137.00 L 699.00,134.00 L 696.00,132.00 L 693.00,132.00 L 677.00,126.00 L 663.00,123.00 L 659.00,121.00 L 656.00,121.00 L 647.00,118.00 L 643.00,118.00 L 638.00,116.00 L 634.00,116.00 L 629.00,114.00 L 625.00,114.00 L 624.00,113.00 L 619.00,113.00 L 618.00,112.00 L 613.00,112.00 L 606.00,110.00 L 600.00,110.00 L 599.00,109.00 L 593.00,109.00 L 592.00,108.00 L 576.00,107.00 L 575.00,106.00 L 552.00,105.00 L 551.00,104.00 L 530.00,104.00 L 529.00,103.00 L 485.00,103.00 L 484.00,104.00 L 466.00,104.00 L 465.00,105.00 L 454.00,105.00 L 453.00,106.00 L 441.00,106.00 L 440.00,107.00 L 432.00,107.00 L 431.00,108.00 L 409.00,110.00 L 403.00,112.00 L 398.00,112.00 L 392.00,114.00 L 377.00,116.00 L 376.00,117.00 L 353.00,122.00 L 349.00,124.00 L 342.00,125.00 L 335.00,128.00 L 332.00,128.00 L 288.00,144.00 L 253.00,161.00 L 228.00,176.00 Z"/>
  </g>
  <path id="check" d="M 894.00,156.00 L 886.00,157.00 L 853.00,173.00 L 807.00,203.00 L 806.00,205.00 L 789.00,217.00 L 788.00,219.00 L 777.00,227.00 L 757.00,245.00 L 757.00,246.00 L 713.00,289.00 L 688.00,318.00 L 686.00,319.00 L 666.00,343.00 L 663.00,348.00 L 661.00,349.00 L 658.00,354.00 L 640.00,376.00 L 638.00,380.00 L 633.00,385.00 L 591.00,443.00 L 590.00,446.00 L 583.00,455.00 L 562.00,488.00 L 559.00,491.00 L 558.00,494.00 L 538.00,523.00 L 534.00,531.00 L 523.00,547.00 L 519.00,556.00 L 515.00,561.00 L 513.00,566.00 L 505.00,578.00 L 498.00,592.00 L 488.00,608.00 L 473.00,637.00 L 470.00,637.00 L 468.00,635.00 L 460.00,622.00 L 457.00,619.00 L 456.00,616.00 L 452.00,612.00 L 450.00,608.00 L 440.00,596.00 L 408.00,552.00 L 393.00,534.00 L 390.00,529.00 L 388.00,528.00 L 371.00,508.00 L 363.00,503.00 L 351.00,503.00 L 343.00,507.00 L 340.00,511.00 L 338.00,517.00 L 338.00,522.00 L 340.00,527.00 L 375.00,569.00 L 385.00,584.00 L 422.00,633.00 L 447.00,671.00 L 450.00,674.00 L 458.00,688.00 L 463.00,693.00 L 470.00,696.00 L 477.00,696.00 L 483.00,694.00 L 490.00,688.00 L 508.00,653.00 L 510.00,651.00 L 514.00,642.00 L 516.00,640.00 L 521.00,629.00 L 527.00,620.00 L 532.00,609.00 L 538.00,600.00 L 545.00,586.00 L 566.00,553.00 L 567.00,550.00 L 580.00,531.00 L 582.00,526.00 L 587.00,520.00 L 596.00,504.00 L 612.00,480.00 L 613.00,477.00 L 616.00,474.00 L 619.00,468.00 L 628.00,456.00 L 629.00,453.00 L 660.00,411.00 L 662.00,407.00 L 666.00,403.00 L 676.00,388.00 L 716.00,336.00 L 754.00,291.00 L 756.00,290.00 L 765.00,279.00 L 767.00,278.00 L 798.00,246.00 L 850.00,200.00 L 896.00,164.00 L 897.00,159.00 Z" fill="var(--check)"/>
</svg>
