<?xml version="1.0" encoding="UTF-8"?>
<svg xmlns="http://www.w3.org/2000/svg" viewBox="0 0 1024 1024" role="img">
  <style>
    :root {
      --bg: transparent;
      --toast: #f24c05;
      --check: #f24c05;
      --line: var(--toast);
    }
  </style>
  <rect width="100%" height="100%" class="bg" fill="var(--bg)" />
  <g transform="translate(22.540880503144706 0) scale(1.2880503144654087) translate(-137 -103)">
    <g id="toast" class="toast" fill="var(--toast)">
    <path id="outer-arc" d="M 207.00,191.00 L 199.00,199.00 L 198.00,199.00 L 193.00,204.00 L 192.00,204.00 L 192.00,205.00 L 191.00,206.00 L 190.00,206.00 L 190.00,207.00 L 189.00,208.00 L 188.00,208.00 L 188.00,209.00 L 187.00,210.00 L 186.00,210.00 L 186.00,211.00 L 185.00,212.00 L 184.00,212.00 L 184.00,213.00 L 176.00,221.00 L 176.00,222.00 L 173.00,225.00 L 173.00,226.00 L 172.00,227.00 L 171.00,227.00 L 171.00,228.00 L 168.00,231.00 L 167.00,234.00 L 161.00,241.00 L 158.00,248.00 L 155.00,251.00 L 155.00,252.00 L 149.00,263.00 L 149.00,266.00 L 147.00,269.00 L 146.00,274.00 L 143.00,279.00 L 143.00,283.00 L 142.00,284.00 L 142.00,287.00 L 141.00,288.00 L 141.00,291.00 L 140.00,292.00 L 140.00,296.00 L 139.00,297.00 L 139.00,303.00 L 138.00,304.00 L 138.00,311.00 L 137.00,312.00 L 137.00,338.00 L 138.00,339.00 L 138.00,347.00 L 139.00,348.00 L 139.00,353.00 L 140.00,354.00 L 140.00,358.00 L 141.00,359.00 L 141.00,362.00 L 142.00,363.00 L 142.00,366.00 L 143.00,367.00 L 144.00,372.00 L 148.00,379.00 L 148.00,381.00 L 149.00,382.00 L 152.00,389.00 L 154.00,391.00 L 157.00,398.00 L 161.00,402.00 L 161.00,403.00 L 165.00,407.00 L 165.00,408.00 L 178.00,421.00 L 178.00,422.00 L 182.00,426.00 L 182.00,427.00 L 186.00,432.00 L 186.00,433.00 L 192.00,444.00 L 192.00,446.00 L 194.00,449.00 L 194.00,452.00 L 195.00,453.00 L 195.00,456.00 L 196.00,457.00 L 196.00,460.00 L 197.00,461.00 L 197.00,466.00 L 198.00,467.00 L 198.00,474.00 L 199.00,475.00 L 199.00,493.00 L 200.00,494.00 L 200.00,512.00 L 199.00,513.00 L 199.00,539.00 L 198.00,540.00 L 198.00,559.00 L 197.00,560.00 L 197.00,578.00 L 196.00,579.00 L 196.00,593.00 L 195.00,594.00 L 195.00,613.00 L 194.00,614.00 L 194.00,634.00 L 193.00,635.00 L 193.00,657.00 L 192.00,658.00 L 192.00,745.00 L 193.00,746.00 L 193.00,758.00 L 194.00,759.00 L 194.00,767.00 L 195.00,768.00 L 195.00,775.00 L 196.00,776.00 L 196.00,782.00 L 197.00,783.00 L 197.00,788.00 L 198.00,789.00 L 198.00,792.00 L 199.00,793.00 L 199.00,796.00 L 200.00,797.00 L 200.00,800.00 L 201.00,801.00 L 201.00,805.00 L 203.00,808.00 L 203.00,811.00 L 204.00,812.00 L 205.00,817.00 L 207.00,820.00 L 207.00,822.00 L 209.00,825.00 L 209.00,827.00 L 212.00,831.00 L 212.00,833.00 L 214.00,835.00 L 216.00,840.00 L 220.00,844.00 L 220.00,845.00 L 223.00,848.00 L 223.00,849.00 L 236.00,862.00 L 237.00,862.00 L 239.00,864.00 L 240.00,864.00 L 244.00,868.00 L 245.00,868.00 L 247.00,870.00 L 252.00,872.00 L 254.00,874.00 L 255.00,874.00 L 262.00,878.00 L 264.00,878.00 L 265.00,879.00 L 266.00,879.00 L 269.00,881.00 L 271.00,881.00 L 274.00,883.00 L 277.00,883.00 L 280.00,885.00 L 284.00,885.00 L 287.00,887.00 L 291.00,887.00 L 292.00,888.00 L 295.00,888.00 L 296.00,889.00 L 300.00,889.00 L 301.00,890.00 L 305.00,890.00 L 306.00,891.00 L 311.00,891.00 L 312.00,892.00 L 319.00,892.00 L 320.00,893.00 L 329.00,893.00 L 330.00,894.00 L 352.00,894.00 L 353.00,895.00 L 354.00,894.00 L 355.00,895.00 L 380.00,895.00 L 381.00,896.00 L 425.00,896.00 L 426.00,897.00 L 495.00,897.00 L 496.00,898.00 L 537.00,898.00 L 538.00,897.00 L 597.00,897.00 L 598.00,896.00 L 639.00,896.00 L 640.00,895.00 L 670.00,895.00 L 671.00,894.00 L 689.00,894.00 L 690.00,893.00 L 700.00,893.00 L 701.00,892.00 L 707.00,892.00 L 708.00,891.00 L 713.00,891.00 L 714.00,890.00 L 719.00,890.00 L 720.00,889.00 L 724.00,889.00 L 725.00,888.00 L 728.00,888.00 L 729.00,887.00 L 732.00,887.00 L 733.00,886.00 L 736.00,886.00 L 737.00,885.00 L 739.00,885.00 L 740.00,884.00 L 742.00,884.00 L 743.00,883.00 L 746.00,883.00 L 753.00,879.00 L 756.00,879.00 L 757.00,878.00 L 764.00,875.00 L 767.00,872.00 L 772.00,870.00 L 776.00,866.00 L 779.00,865.00 L 796.00,848.00 L 796.00,847.00 L 799.00,844.00 L 799.00,843.00 L 802.00,839.00 L 802.00,838.00 L 805.00,835.00 L 805.00,834.00 L 809.00,827.00 L 809.00,825.00 L 811.00,823.00 L 811.00,821.00 L 812.00,820.00 L 812.00,817.00 L 815.00,812.00 L 815.00,808.00 L 817.00,805.00 L 817.00,802.00 L 818.00,801.00 L 818.00,798.00 L 819.00,797.00 L 819.00,794.00 L 820.00,793.00 L 820.00,788.00 L 821.00,787.00 L 821.00,782.00 L 822.00,781.00 L 822.00,776.00 L 823.00,775.00 L 823.00,767.00 L 824.00,766.00 L 824.00,758.00 L 825.00,757.00 L 825.00,743.00 L 826.00,742.00 L 826.00,661.00 L 825.00,660.00 L 825.00,639.00 L 824.00,638.00 L 824.00,619.00 L 823.00,618.00 L 823.00,603.00 L 822.00,602.00 L 822.00,583.00 L 821.00,582.00 L 821.00,563.00 L 820.00,562.00 L 820.00,542.00 L 819.00,541.00 L 819.00,517.00 L 818.00,516.00 L 818.00,485.00 L 819.00,484.00 L 819.00,472.00 L 820.00,471.00 L 820.00,464.00 L 821.00,463.00 L 821.00,459.00 L 822.00,458.00 L 822.00,455.00 L 823.00,454.00 L 823.00,452.00 L 824.00,451.00 L 824.00,448.00 L 825.00,447.00 L 825.00,446.00 L 829.00,439.00 L 829.00,437.00 L 832.00,433.00 L 833.00,430.00 L 842.00,420.00 L 842.00,419.00 L 854.00,407.00 L 854.00,406.00 L 858.00,402.00 L 858.00,401.00 L 861.00,398.00 L 862.00,395.00 L 864.00,393.00 L 864.00,392.00 L 869.00,383.00 L 869.00,381.00 L 872.00,376.00 L 872.00,374.00 L 874.00,371.00 L 874.00,368.00 L 875.00,367.00 L 875.00,364.00 L 877.00,361.00 L 877.00,357.00 L 878.00,356.00 L 878.00,352.00 L 879.00,351.00 L 879.00,343.00 L 880.00,342.00 L 880.00,311.00 L 879.00,310.00 L 879.00,302.00 L 878.00,301.00 L 878.00,296.00 L 877.00,295.00 L 877.00,292.00 L 876.00,291.00 L 876.00,287.00 L 875.00,286.00 L 875.00,284.00 L 874.00,283.00 L 873.00,278.00 L 871.00,275.00 L 871.00,272.00 L 870.00,271.00 L 870.00,269.00 L 868.00,266.00 L 868.00,264.00 L 866.00,262.00 L 866.00,260.00 L 865.00,259.00 L 865.00,258.00 L 864.00,257.00 L 864.00,256.00 L 863.00,255.00 L 860.00,248.00 L 858.00,246.00 L 857.00,243.00 L 854.00,240.00 L 852.00,235.00 L 851.00,234.00 L 849.00,234.00 L 844.00,239.00 L 843.00,239.00 L 839.00,243.00 L 839.00,244.00 L 838.00,245.00 L 835.00,246.00 L 830.00,251.00 L 829.00,251.00 L 829.00,252.00 L 820.00,261.00 L 827.00,270.00 L 827.00,271.00 L 831.00,278.00 L 831.00,280.00 L 832.00,281.00 L 832.00,282.00 L 833.00,283.00 L 833.00,285.00 L 835.00,288.00 L 835.00,292.00 L 837.00,295.00 L 837.00,298.00 L 838.00,299.00 L 838.00,302.00 L 839.00,303.00 L 839.00,308.00 L 840.00,309.00 L 840.00,314.00 L 841.00,315.00 L 841.00,336.00 L 840.00,337.00 L 840.00,343.00 L 839.00,344.00 L 839.00,348.00 L 838.00,349.00 L 838.00,352.00 L 837.00,353.00 L 837.00,356.00 L 835.00,359.00 L 835.00,362.00 L 834.00,363.00 L 834.00,365.00 L 833.00,366.00 L 831.00,371.00 L 828.00,374.00 L 827.00,377.00 L 818.00,387.00 L 818.00,388.00 L 804.00,403.00 L 804.00,404.00 L 798.00,411.00 L 798.00,412.00 L 797.00,413.00 L 797.00,414.00 L 796.00,415.00 L 796.00,416.00 L 795.00,417.00 L 795.00,418.00 L 794.00,419.00 L 794.00,420.00 L 793.00,421.00 L 793.00,422.00 L 787.00,433.00 L 787.00,436.00 L 786.00,437.00 L 786.00,440.00 L 785.00,441.00 L 785.00,444.00 L 784.00,445.00 L 784.00,448.00 L 783.00,449.00 L 783.00,452.00 L 782.00,453.00 L 782.00,458.00 L 781.00,459.00 L 781.00,465.00 L 780.00,466.00 L 780.00,484.00 L 779.00,485.00 L 779.00,510.00 L 780.00,511.00 L 780.00,545.00 L 781.00,546.00 L 781.00,564.00 L 782.00,565.00 L 782.00,583.00 L 783.00,584.00 L 783.00,601.00 L 784.00,602.00 L 784.00,616.00 L 785.00,617.00 L 785.00,639.00 L 786.00,640.00 L 786.00,658.00 L 787.00,659.00 L 787.00,739.00 L 786.00,740.00 L 786.00,753.00 L 785.00,754.00 L 785.00,761.00 L 784.00,762.00 L 784.00,770.00 L 783.00,771.00 L 783.00,776.00 L 782.00,777.00 L 782.00,781.00 L 781.00,782.00 L 781.00,786.00 L 780.00,787.00 L 780.00,790.00 L 779.00,791.00 L 779.00,794.00 L 778.00,795.00 L 778.00,797.00 L 776.00,800.00 L 776.00,803.00 L 775.00,804.00 L 775.00,806.00 L 774.00,807.00 L 774.00,808.00 L 773.00,809.00 L 770.00,816.00 L 767.00,819.00 L 766.00,822.00 L 755.00,833.00 L 754.00,833.00 L 748.00,838.00 L 745.00,839.00 L 742.00,842.00 L 741.00,842.00 L 736.00,845.00 L 733.00,845.00 L 732.00,846.00 L 731.00,846.00 L 730.00,847.00 L 728.00,847.00 L 725.00,849.00 L 721.00,849.00 L 720.00,850.00 L 718.00,850.00 L 717.00,851.00 L 715.00,851.00 L 714.00,852.00 L 709.00,852.00 L 708.00,853.00 L 702.00,853.00 L 701.00,854.00 L 691.00,854.00 L 690.00,855.00 L 678.00,855.00 L 677.00,856.00 L 654.00,856.00 L 653.00,857.00 L 622.00,857.00 L 621.00,858.00 L 586.00,858.00 L 585.00,859.00 L 450.00,859.00 L 449.00,858.00 L 403.00,858.00 L 402.00,857.00 L 372.00,857.00 L 371.00,856.00 L 345.00,856.00 L 344.00,855.00 L 329.00,855.00 L 328.00,854.00 L 318.00,854.00 L 317.00,853.00 L 312.00,853.00 L 311.00,852.00 L 307.00,852.00 L 306.00,851.00 L 302.00,851.00 L 301.00,850.00 L 296.00,849.00 L 293.00,847.00 L 289.00,847.00 L 286.00,845.00 L 284.00,845.00 L 283.00,844.00 L 276.00,841.00 L 274.00,839.00 L 271.00,838.00 L 268.00,835.00 L 265.00,834.00 L 254.00,824.00 L 254.00,823.00 L 251.00,820.00 L 251.00,819.00 L 247.00,814.00 L 247.00,813.00 L 244.00,808.00 L 244.00,806.00 L 243.00,805.00 L 243.00,803.00 L 242.00,802.00 L 241.00,797.00 L 239.00,794.00 L 239.00,790.00 L 238.00,789.00 L 238.00,786.00 L 237.00,785.00 L 237.00,781.00 L 236.00,780.00 L 236.00,776.00 L 235.00,775.00 L 235.00,769.00 L 234.00,768.00 L 234.00,762.00 L 233.00,761.00 L 233.00,753.00 L 232.00,752.00 L 232.00,740.00 L 231.00,739.00 L 231.00,715.00 L 230.00,714.00 L 230.00,697.00 L 231.00,696.00 L 231.00,659.00 L 232.00,658.00 L 232.00,636.00 L 233.00,635.00 L 233.00,620.00 L 234.00,619.00 L 234.00,603.00 L 235.00,602.00 L 235.00,584.00 L 236.00,583.00 L 236.00,560.00 L 237.00,559.00 L 237.00,538.00 L 238.00,537.00 L 238.00,472.00 L 237.00,471.00 L 237.00,461.00 L 236.00,460.00 L 236.00,454.00 L 235.00,453.00 L 235.00,450.00 L 234.00,449.00 L 234.00,446.00 L 233.00,445.00 L 233.00,442.00 L 232.00,441.00 L 232.00,438.00 L 230.00,435.00 L 230.00,432.00 L 226.00,425.00 L 226.00,423.00 L 225.00,422.00 L 222.00,415.00 L 220.00,413.00 L 219.00,410.00 L 213.00,403.00 L 212.00,400.00 L 197.00,384.00 L 197.00,383.00 L 194.00,380.00 L 194.00,379.00 L 191.00,376.00 L 191.00,375.00 L 187.00,370.00 L 187.00,369.00 L 182.00,360.00 L 182.00,357.00 L 181.00,356.00 L 181.00,353.00 L 179.00,350.00 L 179.00,346.00 L 178.00,345.00 L 178.00,341.00 L 177.00,340.00 L 177.00,334.00 L 176.00,333.00 L 176.00,319.00 L 177.00,318.00 L 177.00,310.00 L 178.00,309.00 L 178.00,303.00 L 179.00,302.00 L 179.00,299.00 L 180.00,298.00 L 180.00,295.00 L 181.00,294.00 L 181.00,290.00 L 182.00,289.00 L 182.00,288.00 L 184.00,285.00 L 184.00,283.00 L 187.00,278.00 L 187.00,275.00 L 188.00,274.00 L 188.00,273.00 L 191.00,270.00 L 191.00,269.00 L 192.00,268.00 L 193.00,265.00 L 195.00,263.00 L 196.00,260.00 L 200.00,256.00 L 200.00,255.00 L 203.00,252.00 L 203.00,251.00 L 208.00,246.00 L 208.00,245.00 L 223.00,230.00 L 224.00,230.00 L 232.00,222.00 L 233.00,222.00 L 240.00,216.00 L 243.00,215.00 L 248.00,210.00 L 255.00,207.00 L 259.00,203.00 L 260.00,203.00 L 261.00,202.00 L 268.00,199.00 L 271.00,196.00 L 272.00,196.00 L 279.00,192.00 L 281.00,192.00 L 282.00,191.00 L 287.00,189.00 L 289.00,187.00 L 290.00,187.00 L 295.00,184.00 L 297.00,184.00 L 308.00,178.00 L 313.00,177.00 L 314.00,176.00 L 315.00,176.00 L 316.00,175.00 L 318.00,175.00 L 321.00,173.00 L 326.00,172.00 L 327.00,171.00 L 328.00,171.00 L 329.00,170.00 L 331.00,170.00 L 332.00,169.00 L 335.00,169.00 L 340.00,166.00 L 343.00,166.00 L 344.00,165.00 L 346.00,165.00 L 347.00,164.00 L 350.00,164.00 L 353.00,162.00 L 357.00,162.00 L 358.00,161.00 L 361.00,161.00 L 364.00,159.00 L 367.00,159.00 L 368.00,158.00 L 371.00,158.00 L 372.00,157.00 L 375.00,157.00 L 376.00,156.00 L 379.00,156.00 L 380.00,155.00 L 383.00,155.00 L 384.00,154.00 L 387.00,154.00 L 388.00,153.00 L 392.00,153.00 L 393.00,152.00 L 397.00,152.00 L 398.00,151.00 L 403.00,151.00 L 404.00,150.00 L 409.00,150.00 L 410.00,149.00 L 415.00,149.00 L 416.00,148.00 L 422.00,148.00 L 423.00,147.00 L 430.00,147.00 L 431.00,146.00 L 438.00,146.00 L 439.00,145.00 L 448.00,145.00 L 449.00,144.00 L 458.00,144.00 L 459.00,143.00 L 473.00,143.00 L 474.00,142.00 L 539.00,142.00 L 540.00,143.00 L 555.00,143.00 L 556.00,144.00 L 566.00,144.00 L 567.00,145.00 L 576.00,145.00 L 577.00,146.00 L 585.00,146.00 L 586.00,147.00 L 592.00,147.00 L 593.00,148.00 L 599.00,148.00 L 600.00,149.00 L 605.00,149.00 L 606.00,150.00 L 611.00,150.00 L 612.00,151.00 L 617.00,151.00 L 618.00,152.00 L 622.00,152.00 L 623.00,153.00 L 627.00,153.00 L 628.00,154.00 L 632.00,154.00 L 633.00,155.00 L 636.00,155.00 L 637.00,156.00 L 640.00,156.00 L 641.00,157.00 L 644.00,157.00 L 645.00,158.00 L 649.00,158.00 L 652.00,160.00 L 655.00,160.00 L 656.00,161.00 L 660.00,161.00 L 663.00,163.00 L 666.00,163.00 L 669.00,165.00 L 672.00,165.00 L 673.00,166.00 L 678.00,167.00 L 681.00,169.00 L 683.00,169.00 L 684.00,170.00 L 687.00,170.00 L 692.00,173.00 L 695.00,173.00 L 698.00,175.00 L 700.00,175.00 L 703.00,177.00 L 705.00,177.00 L 708.00,179.00 L 710.00,179.00 L 711.00,180.00 L 712.00,180.00 L 713.00,181.00 L 714.00,181.00 L 725.00,187.00 L 728.00,187.00 L 729.00,188.00 L 732.00,189.00 L 735.00,192.00 L 736.00,192.00 L 737.00,193.00 L 738.00,193.00 L 739.00,194.00 L 746.00,197.00 L 752.00,202.00 L 759.00,205.00 L 761.00,207.00 L 763.00,205.00 L 764.00,205.00 L 768.00,201.00 L 769.00,201.00 L 771.00,199.00 L 772.00,199.00 L 774.00,197.00 L 775.00,197.00 L 778.00,194.00 L 779.00,194.00 L 784.00,190.00 L 787.00,189.00 L 795.00,182.00 L 794.00,181.00 L 793.00,181.00 L 790.00,178.00 L 789.00,178.00 L 786.00,175.00 L 781.00,173.00 L 778.00,170.00 L 777.00,170.00 L 776.00,169.00 L 773.00,168.00 L 771.00,166.00 L 768.00,165.00 L 765.00,162.00 L 764.00,162.00 L 763.00,161.00 L 762.00,161.00 L 761.00,160.00 L 760.00,160.00 L 759.00,159.00 L 758.00,159.00 L 757.00,158.00 L 756.00,158.00 L 755.00,157.00 L 754.00,157.00 L 753.00,156.00 L 752.00,156.00 L 751.00,155.00 L 750.00,155.00 L 749.00,154.00 L 748.00,154.00 L 747.00,153.00 L 746.00,153.00 L 745.00,152.00 L 744.00,152.00 L 743.00,151.00 L 742.00,151.00 L 731.00,145.00 L 728.00,145.00 L 725.00,143.00 L 723.00,143.00 L 720.00,141.00 L 718.00,141.00 L 711.00,137.00 L 708.00,137.00 L 705.00,135.00 L 702.00,135.00 L 701.00,134.00 L 699.00,134.00 L 696.00,132.00 L 693.00,132.00 L 692.00,131.00 L 690.00,131.00 L 689.00,130.00 L 687.00,130.00 L 686.00,129.00 L 681.00,128.00 L 678.00,126.00 L 674.00,126.00 L 671.00,124.00 L 667.00,124.00 L 666.00,123.00 L 663.00,123.00 L 660.00,121.00 L 656.00,121.00 L 655.00,120.00 L 652.00,120.00 L 651.00,119.00 L 648.00,119.00 L 647.00,118.00 L 643.00,118.00 L 642.00,117.00 L 639.00,117.00 L 638.00,116.00 L 634.00,116.00 L 633.00,115.00 L 630.00,115.00 L 629.00,114.00 L 625.00,114.00 L 624.00,113.00 L 619.00,113.00 L 618.00,112.00 L 613.00,112.00 L 612.00,111.00 L 607.00,111.00 L 606.00,110.00 L 600.00,110.00 L 599.00,109.00 L 593.00,109.00 L 592.00,108.00 L 585.00,108.00 L 584.00,107.00 L 576.00,107.00 L 575.00,106.00 L 565.00,106.00 L 564.00,105.00 L 552.00,105.00 L 551.00,104.00 L 530.00,104.00 L 529.00,103.00 L 485.00,103.00 L 484.00,104.00 L 466.00,104.00 L 465.00,105.00 L 454.00,105.00 L 453.00,106.00 L 441.00,106.00 L 440.00,107.00 L 432.00,107.00 L 431.00,108.00 L 424.00,108.00 L 423.00,109.00 L 417.00,109.00 L 416.00,110.00 L 409.00,110.00 L 408.00,111.00 L 404.00,111.00 L 403.00,112.00 L 398.00,112.00 L 397.00,113.00 L 393.00,113.00 L 392.00,114.00 L 387.00,114.00 L 386.00,115.00 L 382.00,115.00 L 381.00,116.00 L 377.00,116.00 L 376.00,117.00 L 373.00,117.00 L 372.00,118.00 L 369.00,118.00 L 368.00,119.00 L 365.00,119.00 L 364.00,120.00 L 361.00,120.00 L 360.00,121.00 L 357.00,121.00 L 356.00,122.00 L 353.00,122.00 L 350.00,124.00 L 346.00,124.00 L 345.00,125.00 L 342.00,125.00 L 341.00,126.00 L 339.00,126.00 L 336.00,128.00 L 332.00,128.00 L 331.00,129.00 L 329.00,129.00 L 328.00,130.00 L 323.00,131.00 L 320.00,133.00 L 317.00,133.00 L 316.00,134.00 L 314.00,134.00 L 309.00,137.00 L 306.00,137.00 L 305.00,138.00 L 303.00,138.00 L 302.00,139.00 L 301.00,139.00 L 300.00,140.00 L 298.00,140.00 L 291.00,144.00 L 288.00,144.00 L 281.00,148.00 L 279.00,148.00 L 278.00,149.00 L 277.00,149.00 L 276.00,150.00 L 275.00,150.00 L 274.00,151.00 L 273.00,151.00 L 272.00,152.00 L 271.00,152.00 L 270.00,153.00 L 269.00,153.00 L 268.00,154.00 L 267.00,154.00 L 266.00,155.00 L 265.00,155.00 L 264.00,156.00 L 263.00,156.00 L 262.00,157.00 L 261.00,157.00 L 260.00,158.00 L 253.00,161.00 L 251.00,163.00 L 246.00,165.00 L 243.00,168.00 L 236.00,171.00 L 231.00,175.00 L 228.00,176.00 L 221.00,182.00 L 220.00,182.00 L 218.00,184.00 L 217.00,184.00 L 215.00,186.00 L 214.00,186.00 L 210.00,190.00 Z"/>
    <path id="inner-arc" d="M 261.88,236.86 L 258.27,240.47 L 257.36,240.47 L 253.75,244.08 L 252.85,244.08 L 246.53,250.40 L 245.63,250.40 L 238.41,257.62 L 238.41,258.52 L 236.61,259.43 L 236.61,260.33 L 231.19,265.74 L 231.19,266.65 L 228.48,269.35 L 228.48,270.26 L 226.68,271.16 L 226.68,272.06 L 219.46,281.99 L 212.24,296.43 L 212.24,298.23 L 211.34,299.14 L 211.34,300.94 L 210.43,301.84 L 210.43,303.65 L 208.63,307.26 L 208.63,310.87 L 207.73,311.77 L 207.73,315.38 L 206.82,316.28 L 206.82,321.70 L 205.92,322.60 L 205.92,347.87 L 206.82,348.77 L 206.82,353.29 L 207.73,354.19 L 208.63,361.41 L 209.53,362.31 L 209.53,364.12 L 210.43,365.02 L 210.43,366.82 L 211.34,367.73 L 211.34,369.53 L 213.14,372.24 L 214.04,375.85 L 215.85,377.65 L 219.46,384.87 L 229.39,395.70 L 229.39,396.61 L 236.61,403.83 L 236.61,404.73 L 239.31,407.44 L 241.12,411.05 L 243.83,413.75 L 252.85,430.90 L 252.85,432.71 L 253.75,433.61 L 253.75,435.41 L 254.66,436.32 L 254.66,438.12 L 256.46,441.73 L 256.46,445.34 L 257.36,446.24 L 258.27,453.46 L 259.17,454.37 L 259.17,458.88 L 260.07,459.78 L 260.07,465.20 L 260.97,466.10 L 260.97,476.93 L 261.88,477.83 L 261.88,513.03 L 260.97,513.93 L 260.97,535.59 L 260.07,536.49 L 260.07,554.54 L 259.17,555.45 L 259.17,572.59 L 258.27,573.50 L 258.27,587.03 L 257.36,587.94 L 257.36,605.08 L 256.46,605.99 L 256.46,623.13 L 255.56,624.04 L 255.56,653.82 L 254.66,654.72 L 254.66,685.41 L 255.56,686.31 L 255.56,710.68 L 256.46,711.58 L 256.46,721.51 L 257.36,722.41 L 258.27,735.04 L 259.17,735.95 L 259.17,740.46 L 260.07,741.36 L 260.07,744.97 L 260.97,745.87 L 260.97,749.48 L 261.88,750.39 L 262.78,756.70 L 263.68,757.61 L 265.49,764.83 L 268.19,769.34 L 268.19,771.14 L 270.00,774.75 L 271.80,776.56 L 272.71,779.27 L 274.51,781.07 L 276.32,784.68 L 279.02,787.39 L 279.02,788.29 L 286.24,795.51 L 289.85,797.32 L 292.56,800.02 L 307.00,807.24 L 308.81,807.24 L 309.71,808.15 L 311.51,808.15 L 312.42,809.05 L 314.22,809.05 L 317.83,810.85 L 320.54,810.85 L 321.44,811.76 L 327.76,812.66 L 328.66,813.56 L 339.49,814.46 L 340.39,815.37 L 346.71,815.37 L 347.61,816.27 L 358.44,816.27 L 359.35,817.17 L 378.30,817.17 L 379.20,818.07 L 410.79,818.07 L 411.69,818.98 L 447.79,818.98 L 448.69,819.88 L 578.65,819.88 L 579.56,818.98 L 612.95,818.98 L 613.85,818.07 L 641.83,818.07 L 642.73,817.17 L 661.68,817.17 L 662.59,816.27 L 678.83,815.37 L 679.73,814.46 L 684.25,814.46 L 685.15,813.56 L 688.76,813.56 L 689.66,812.66 L 692.37,812.66 L 693.27,811.76 L 696.88,811.76 L 697.78,810.85 L 699.59,810.85 L 700.49,809.95 L 707.71,808.15 L 710.42,806.34 L 712.22,806.34 L 723.05,800.93 L 732.08,793.71 L 732.98,793.71 L 732.98,792.80 L 734.79,791.90 L 734.79,791.00 L 736.59,790.10 L 736.59,789.19 L 741.10,784.68 L 741.10,783.78 L 744.71,779.27 L 749.23,770.24 L 749.23,768.44 L 751.03,765.73 L 751.03,763.92 L 751.93,763.02 L 751.93,761.22 L 753.74,757.61 L 754.64,751.29 L 755.54,750.39 L 756.45,742.26 L 757.35,741.36 L 758.25,730.53 L 759.15,729.63 L 759.15,722.41 L 760.06,721.51 L 760.06,713.38 L 760.96,712.48 L 760.96,688.11 L 761.86,687.21 L 761.86,661.04 L 760.96,660.14 L 760.96,624.94 L 760.06,624.04 L 759.15,589.74 L 758.25,588.84 L 758.25,576.20 L 757.35,575.30 L 757.35,559.06 L 756.45,558.15 L 756.45,542.81 L 755.54,541.91 L 755.54,521.15 L 754.64,520.25 L 754.64,478.73 L 755.54,477.83 L 755.54,467.00 L 756.45,466.10 L 756.45,459.78 L 757.35,458.88 L 757.35,455.27 L 758.25,454.37 L 758.25,450.76 L 759.15,449.85 L 760.06,442.63 L 760.96,441.73 L 762.76,434.51 L 764.57,431.80 L 765.47,427.29 L 767.28,425.49 L 769.08,420.07 L 771.79,417.36 L 771.79,415.56 L 776.30,410.14 L 776.30,409.24 L 779.91,405.63 L 779.91,404.73 L 784.42,400.22 L 784.42,399.31 L 786.23,398.41 L 786.23,397.51 L 796.16,386.68 L 796.16,385.78 L 801.57,378.56 L 801.57,376.75 L 803.38,374.95 L 804.28,370.43 L 806.99,365.02 L 806.99,362.31 L 807.89,361.41 L 807.89,358.70 L 808.79,357.80 L 808.79,354.19 L 809.69,353.29 L 809.69,346.97 L 810.60,346.07 L 810.60,328.02 L 809.69,327.11 L 809.69,320.80 L 808.79,319.89 L 808.79,315.38 L 807.89,314.48 L 806.99,308.16 L 805.18,304.55 L 805.18,301.84 L 801.57,294.62 L 801.57,292.82 L 799.77,289.21 L 797.96,287.40 L 797.96,285.60 L 796.16,283.79 L 792.55,276.57 L 790.74,274.77 L 778.11,286.50 L 779.91,290.11 L 781.72,291.92 L 788.94,306.36 L 789.84,312.67 L 790.74,313.58 L 791.64,318.99 L 792.55,319.89 L 792.55,325.31 L 793.45,326.21 L 793.45,347.87 L 792.55,348.77 L 792.55,354.19 L 791.64,355.09 L 791.64,357.80 L 790.74,358.70 L 789.84,363.21 L 788.03,365.92 L 788.03,367.73 L 783.52,374.04 L 783.52,374.95 L 780.81,377.65 L 780.81,378.56 L 778.11,381.26 L 778.11,382.17 L 776.30,383.07 L 776.30,383.97 L 765.47,395.70 L 765.47,396.61 L 760.06,402.92 L 757.35,408.34 L 755.54,410.14 L 751.03,419.17 L 751.03,420.97 L 749.23,422.78 L 749.23,424.58 L 747.42,427.29 L 747.42,429.10 L 746.52,430.00 L 746.52,431.80 L 745.62,432.71 L 745.62,434.51 L 743.81,438.12 L 742.91,445.34 L 742.01,446.24 L 742.01,448.95 L 741.10,449.85 L 741.10,454.37 L 740.20,455.27 L 740.20,460.68 L 739.30,461.59 L 739.30,470.61 L 738.40,471.51 L 738.40,531.98 L 739.30,532.88 L 739.30,553.64 L 740.20,554.54 L 740.20,567.18 L 741.10,568.08 L 741.10,587.03 L 742.01,587.94 L 742.01,602.38 L 742.91,603.28 L 742.91,620.43 L 743.81,621.33 L 743.81,645.70 L 744.71,646.60 L 744.71,696.24 L 743.81,697.14 L 743.81,712.48 L 742.91,713.38 L 742.91,722.41 L 742.01,723.31 L 742.01,730.53 L 741.10,731.43 L 741.10,735.95 L 740.20,736.85 L 740.20,740.46 L 739.30,741.36 L 739.30,745.87 L 738.40,746.78 L 738.40,749.48 L 737.49,750.39 L 736.59,755.80 L 734.79,758.51 L 733.88,763.02 L 731.18,768.44 L 727.57,772.95 L 727.57,773.85 L 717.64,783.78 L 714.93,784.68 L 713.13,786.49 L 710.42,787.39 L 706.81,790.10 L 705.00,790.10 L 702.30,791.90 L 700.49,791.90 L 699.59,792.80 L 697.78,792.80 L 696.88,793.71 L 695.08,793.71 L 691.47,795.51 L 688.76,795.51 L 687.86,796.41 L 678.83,797.32 L 677.93,798.22 L 672.51,798.22 L 671.61,799.12 L 663.49,799.12 L 662.59,800.02 L 649.95,800.02 L 649.05,800.93 L 618.36,800.93 L 617.46,801.83 L 591.29,801.83 L 590.39,802.73 L 542.55,802.73 L 541.65,803.63 L 492.92,803.63 L 492.01,802.73 L 436.96,802.73 L 436.06,801.83 L 404.47,801.83 L 403.57,800.93 L 372.88,800.93 L 371.98,800.02 L 358.44,800.02 L 357.54,799.12 L 348.52,799.12 L 347.61,798.22 L 341.30,798.22 L 340.39,797.32 L 335.88,797.32 L 334.98,796.41 L 331.37,796.41 L 330.47,795.51 L 323.25,794.61 L 322.34,793.71 L 315.12,791.90 L 312.42,790.10 L 310.61,790.10 L 308.81,788.29 L 302.49,785.58 L 299.78,782.88 L 298.88,782.88 L 289.85,773.85 L 289.85,772.95 L 284.44,765.73 L 284.44,763.92 L 281.73,759.41 L 281.73,757.61 L 280.83,756.70 L 280.83,754.90 L 279.02,751.29 L 279.02,748.58 L 278.12,747.68 L 278.12,744.07 L 277.22,743.17 L 277.22,739.56 L 276.32,738.65 L 276.32,734.14 L 275.41,733.24 L 275.41,728.73 L 274.51,727.82 L 274.51,721.51 L 273.61,720.60 L 273.61,712.48 L 272.71,711.58 L 272.71,696.24 L 271.80,695.33 L 271.80,645.70 L 272.71,644.79 L 272.71,620.43 L 273.61,619.52 L 273.61,601.47 L 274.51,600.57 L 274.51,583.42 L 275.41,582.52 L 275.41,568.08 L 276.32,567.18 L 276.32,553.64 L 277.22,552.74 L 277.22,529.27 L 278.12,528.37 L 278.12,468.81 L 277.22,467.90 L 276.32,453.46 L 275.41,452.56 L 275.41,448.95 L 274.51,448.05 L 273.61,440.83 L 271.80,437.22 L 271.80,434.51 L 270.90,433.61 L 269.10,426.39 L 261.88,411.95 L 261.88,410.14 L 260.07,408.34 L 260.07,407.44 L 258.27,405.63 L 254.66,399.31 L 251.95,396.61 L 251.95,395.70 L 234.80,376.75 L 234.80,375.85 L 231.19,371.34 L 227.58,364.12 L 227.58,362.31 L 226.68,361.41 L 226.68,359.60 L 224.87,355.99 L 224.87,353.29 L 223.97,352.38 L 223.97,348.77 L 223.07,347.87 L 223.07,322.60 L 223.97,321.70 L 224.87,313.58 L 225.78,312.67 L 226.68,307.26 L 229.39,301.84 L 229.39,300.04 L 231.19,298.23 L 232.09,294.62 L 233.90,292.82 L 237.51,285.60 L 243.83,278.38 L 243.83,277.48 L 249.24,272.06 L 249.24,271.16 L 251.05,270.26 L 251.05,269.35 L 252.85,268.45 L 252.85,267.55 L 254.66,266.65 L 254.66,265.74 L 256.46,264.84 L 257.36,263.04 L 258.27,263.04 L 264.58,256.72 L 265.49,256.72 L 268.19,254.01 L 269.10,254.01 L 272.71,250.40 L 273.61,250.40 L 279.02,245.89 L 279.93,245.89 L 289.85,238.67 L 292.56,237.77 L 297.07,234.16 L 305.20,230.55 L 307.00,228.74 L 317.83,223.33 L 319.64,223.33 L 325.95,219.72 L 327.76,219.72 L 338.59,214.30 L 343.10,213.40 L 345.81,211.59 L 350.32,210.69 L 353.03,208.89 L 355.74,208.89 L 358.44,207.08 L 361.15,207.08 L 363.86,205.28 L 366.57,205.28 L 367.47,204.37 L 369.27,204.37 L 372.88,202.57 L 375.59,202.57 L 376.49,201.67 L 379.20,201.67 L 380.10,200.76 L 382.81,200.76 L 383.71,199.86 L 386.42,199.86 L 387.32,198.96 L 390.03,198.96 L 390.93,198.06 L 393.64,198.06 L 394.54,197.15 L 398.15,197.15 L 399.06,196.25 L 401.76,196.25 L 402.67,195.35 L 406.28,195.35 L 407.18,194.45 L 415.30,193.54 L 416.20,192.64 L 421.62,192.64 L 422.52,191.74 L 426.13,191.74 L 427.03,190.84 L 439.67,189.93 L 440.57,189.03 L 446.89,189.03 L 447.79,188.13 L 455.91,188.13 L 456.82,187.23 L 464.94,187.23 L 465.84,186.32 L 480.28,186.32 L 481.18,185.42 L 534.43,185.42 L 535.33,186.32 L 549.77,186.32 L 550.68,187.23 L 558.80,187.23 L 559.70,188.13 L 574.14,189.03 L 575.04,189.93 L 586.78,190.84 L 587.68,191.74 L 592.19,191.74 L 593.09,192.64 L 597.61,192.64 L 598.51,193.54 L 602.12,193.54 L 603.02,194.45 L 607.53,194.45 L 608.44,195.35 L 611.14,195.35 L 612.05,196.25 L 620.17,197.15 L 621.07,198.06 L 623.78,198.06 L 624.68,198.96 L 627.39,198.96 L 628.29,199.86 L 631.00,199.86 L 631.90,200.76 L 638.22,201.67 L 639.12,202.57 L 640.93,202.57 L 644.54,204.37 L 647.24,204.37 L 649.95,206.18 L 652.66,206.18 L 653.56,207.08 L 655.37,207.08 L 656.27,207.98 L 658.07,207.98 L 658.98,208.89 L 660.78,208.89 L 661.68,209.79 L 668.90,211.59 L 671.61,213.40 L 673.42,213.40 L 676.12,215.20 L 677.93,215.20 L 682.44,217.91 L 684.25,217.91 L 686.95,219.72 L 688.76,219.72 L 696.88,224.23 L 698.69,224.23 L 700.49,226.03 L 704.10,226.94 L 707.71,229.64 L 714.03,232.35 L 718.54,235.96 L 721.25,236.86 L 723.05,238.67 L 726.66,240.47 L 731.18,235.96 L 732.08,235.96 L 732.98,234.16 L 733.88,234.16 L 737.49,230.55 L 738.40,230.55 L 739.30,229.64 L 739.30,227.84 L 738.40,227.84 L 735.69,225.13 L 730.27,222.42 L 728.47,220.62 L 723.96,218.81 L 722.15,217.01 L 718.54,216.11 L 716.74,214.30 L 698.69,205.28 L 696.88,205.28 L 692.37,202.57 L 690.56,202.57 L 687.86,200.76 L 686.05,200.76 L 683.34,198.96 L 681.54,198.96 L 677.03,196.25 L 669.81,194.45 L 667.10,192.64 L 665.29,192.64 L 661.68,190.84 L 658.98,190.84 L 658.07,189.93 L 656.27,189.93 L 655.37,189.03 L 653.56,189.03 L 649.95,187.23 L 643.63,186.32 L 640.02,184.52 L 633.71,183.62 L 630.10,181.81 L 626.49,181.81 L 625.58,180.91 L 622.88,180.91 L 621.97,180.01 L 618.36,180.01 L 617.46,179.10 L 613.85,179.10 L 612.95,178.20 L 609.34,178.20 L 608.44,177.30 L 604.83,177.30 L 603.92,176.40 L 599.41,176.40 L 598.51,175.49 L 594.00,175.49 L 593.09,174.59 L 588.58,174.59 L 587.68,173.69 L 582.26,173.69 L 581.36,172.79 L 567.82,171.88 L 566.92,170.98 L 547.07,170.08 L 546.16,169.18 L 530.82,169.18 L 529.92,168.27 L 486.60,168.27 L 485.70,169.18 L 467.65,169.18 L 466.74,170.08 L 455.91,170.08 L 455.01,170.98 L 446.89,170.98 L 445.99,171.88 L 439.67,171.88 L 438.77,172.79 L 426.13,173.69 L 425.23,174.59 L 420.72,174.59 L 419.81,175.49 L 415.30,175.49 L 414.40,176.40 L 409.89,176.40 L 408.98,177.30 L 400.86,178.20 L 399.96,179.10 L 392.74,180.01 L 391.84,180.91 L 389.13,180.91 L 388.23,181.81 L 381.01,182.71 L 377.40,184.52 L 371.08,185.42 L 367.47,187.23 L 364.76,187.23 L 363.86,188.13 L 362.05,188.13 L 361.15,189.03 L 359.35,189.03 L 355.74,190.84 L 353.03,190.84 L 352.13,191.74 L 347.61,192.64 L 344.91,194.45 L 340.39,195.35 L 337.69,197.15 L 333.17,198.06 L 324.15,202.57 L 322.34,202.57 L 319.64,204.37 L 317.83,204.37 L 307.90,209.79 L 306.10,209.79 L 304.29,211.59 L 302.49,211.59 L 300.68,213.40 L 298.88,213.40 L 297.07,215.20 L 292.56,217.01 L 290.76,218.81 L 288.95,218.81 L 287.15,220.62 L 281.73,223.33 L 279.93,225.13 L 277.22,226.03 L 275.41,227.84 L 269.10,231.45 L 262.78,236.86 Z"/>
  </g>
    <path id="check" class="check" d="M 894.00,156.00 L 886.00,157.00 L 870.00,165.00 L 868.00,165.00 L 864.00,167.00 L 862.00,169.00 L 853.00,173.00 L 851.00,175.00 L 848.00,176.00 L 846.00,178.00 L 838.00,182.00 L 835.00,185.00 L 834.00,185.00 L 829.00,189.00 L 826.00,190.00 L 823.00,193.00 L 822.00,193.00 L 820.00,195.00 L 819.00,195.00 L 817.00,197.00 L 816.00,197.00 L 814.00,199.00 L 807.00,203.00 L 806.00,205.00 L 802.00,207.00 L 794.00,214.00 L 793.00,214.00 L 790.00,217.00 L 789.00,217.00 L 788.00,219.00 L 787.00,219.00 L 783.00,223.00 L 782.00,223.00 L 778.00,227.00 L 777.00,227.00 L 758.00,245.00 L 757.00,245.00 L 757.00,246.00 L 754.00,249.00 L 753.00,249.00 L 753.00,250.00 L 751.00,251.00 L 751.00,252.00 L 749.00,253.00 L 749.00,254.00 L 747.00,255.00 L 717.00,285.00 L 717.00,286.00 L 715.00,287.00 L 714.00,289.00 L 713.00,289.00 L 713.00,290.00 L 704.00,299.00 L 704.00,300.00 L 696.00,308.00 L 696.00,309.00 L 694.00,310.00 L 694.00,311.00 L 688.00,317.00 L 688.00,318.00 L 686.00,319.00 L 686.00,320.00 L 681.00,325.00 L 681.00,326.00 L 679.00,327.00 L 679.00,328.00 L 674.00,333.00 L 674.00,334.00 L 666.00,343.00 L 666.00,344.00 L 663.00,347.00 L 663.00,348.00 L 661.00,349.00 L 661.00,350.00 L 658.00,353.00 L 658.00,354.00 L 654.00,358.00 L 654.00,359.00 L 651.00,362.00 L 651.00,363.00 L 640.00,376.00 L 638.00,380.00 L 633.00,385.00 L 633.00,386.00 L 630.00,389.00 L 628.00,393.00 L 624.00,397.00 L 624.00,398.00 L 609.00,417.00 L 607.00,421.00 L 602.00,427.00 L 601.00,430.00 L 598.00,433.00 L 594.00,440.00 L 591.00,443.00 L 590.00,446.00 L 588.00,448.00 L 586.00,452.00 L 583.00,455.00 L 583.00,456.00 L 579.00,461.00 L 578.00,464.00 L 575.00,467.00 L 572.00,473.00 L 569.00,476.00 L 569.00,477.00 L 567.00,479.00 L 566.00,482.00 L 564.00,484.00 L 562.00,488.00 L 559.00,491.00 L 558.00,494.00 L 546.00,511.00 L 545.00,514.00 L 542.00,517.00 L 542.00,518.00 L 538.00,523.00 L 534.00,531.00 L 532.00,533.00 L 532.00,534.00 L 528.00,539.00 L 527.00,542.00 L 523.00,547.00 L 519.00,556.00 L 515.00,561.00 L 513.00,566.00 L 511.00,568.00 L 510.00,571.00 L 505.00,578.00 L 498.00,592.00 L 496.00,594.00 L 494.00,599.00 L 492.00,601.00 L 490.00,606.00 L 488.00,608.00 L 484.00,617.00 L 482.00,619.00 L 473.00,637.00 L 470.00,637.00 L 468.00,635.00 L 468.00,634.00 L 466.00,632.00 L 466.00,631.00 L 464.00,629.00 L 460.00,622.00 L 457.00,619.00 L 456.00,616.00 L 452.00,612.00 L 450.00,608.00 L 447.00,605.00 L 447.00,604.00 L 444.00,601.00 L 444.00,600.00 L 440.00,596.00 L 440.00,595.00 L 437.00,592.00 L 435.00,588.00 L 428.00,580.00 L 428.00,579.00 L 416.00,564.00 L 416.00,563.00 L 408.00,553.00 L 408.00,552.00 L 404.00,548.00 L 404.00,547.00 L 401.00,544.00 L 401.00,543.00 L 393.00,534.00 L 393.00,533.00 L 390.00,530.00 L 390.00,529.00 L 388.00,528.00 L 388.00,527.00 L 371.00,509.00 L 371.00,508.00 L 370.00,508.00 L 367.00,505.00 L 363.00,503.00 L 351.00,503.00 L 343.00,507.00 L 343.00,508.00 L 340.00,511.00 L 339.00,513.00 L 339.00,516.00 L 338.00,517.00 L 338.00,522.00 L 339.00,523.00 L 340.00,527.00 L 348.00,536.00 L 348.00,537.00 L 353.00,542.00 L 353.00,543.00 L 358.00,548.00 L 358.00,549.00 L 362.00,553.00 L 362.00,554.00 L 366.00,558.00 L 366.00,559.00 L 375.00,569.00 L 375.00,570.00 L 383.00,580.00 L 385.00,584.00 L 388.00,587.00 L 388.00,588.00 L 403.00,607.00 L 405.00,611.00 L 417.00,626.00 L 419.00,630.00 L 422.00,633.00 L 422.00,634.00 L 424.00,636.00 L 426.00,640.00 L 429.00,643.00 L 430.00,646.00 L 433.00,649.00 L 433.00,650.00 L 435.00,652.00 L 435.00,653.00 L 437.00,655.00 L 437.00,656.00 L 439.00,658.00 L 439.00,659.00 L 441.00,661.00 L 441.00,662.00 L 443.00,664.00 L 447.00,671.00 L 450.00,674.00 L 451.00,677.00 L 455.00,682.00 L 458.00,688.00 L 463.00,693.00 L 467.00,695.00 L 469.00,695.00 L 470.00,696.00 L 477.00,696.00 L 478.00,695.00 L 481.00,695.00 L 483.00,694.00 L 490.00,688.00 L 501.00,666.00 L 503.00,664.00 L 508.00,653.00 L 510.00,651.00 L 514.00,642.00 L 516.00,640.00 L 521.00,629.00 L 523.00,627.00 L 525.00,622.00 L 527.00,620.00 L 532.00,609.00 L 534.00,607.00 L 536.00,602.00 L 538.00,600.00 L 545.00,586.00 L 547.00,584.00 L 548.00,581.00 L 550.00,579.00 L 554.00,571.00 L 558.00,566.00 L 562.00,558.00 L 566.00,553.00 L 567.00,550.00 L 569.00,548.00 L 569.00,547.00 L 573.00,542.00 L 574.00,539.00 L 580.00,531.00 L 582.00,526.00 L 587.00,520.00 L 588.00,517.00 L 592.00,512.00 L 596.00,504.00 L 598.00,502.00 L 598.00,501.00 L 602.00,496.00 L 603.00,493.00 L 607.00,488.00 L 608.00,485.00 L 612.00,480.00 L 613.00,477.00 L 616.00,474.00 L 619.00,468.00 L 628.00,456.00 L 629.00,453.00 L 632.00,450.00 L 634.00,446.00 L 637.00,443.00 L 641.00,436.00 L 644.00,433.00 L 646.00,429.00 L 652.00,422.00 L 654.00,418.00 L 660.00,411.00 L 662.00,407.00 L 666.00,403.00 L 666.00,402.00 L 674.00,392.00 L 676.00,388.00 L 679.00,385.00 L 679.00,384.00 L 682.00,381.00 L 682.00,380.00 L 685.00,377.00 L 685.00,376.00 L 688.00,373.00 L 688.00,372.00 L 691.00,369.00 L 691.00,368.00 L 695.00,364.00 L 695.00,363.00 L 698.00,360.00 L 698.00,359.00 L 701.00,356.00 L 701.00,355.00 L 705.00,351.00 L 705.00,350.00 L 708.00,347.00 L 708.00,346.00 L 716.00,337.00 L 716.00,336.00 L 721.00,331.00 L 721.00,330.00 L 725.00,326.00 L 725.00,325.00 L 727.00,324.00 L 727.00,323.00 L 732.00,318.00 L 732.00,317.00 L 742.00,306.00 L 742.00,305.00 L 749.00,298.00 L 749.00,297.00 L 754.00,292.00 L 754.00,291.00 L 756.00,290.00 L 756.00,289.00 L 765.00,280.00 L 765.00,279.00 L 767.00,278.00 L 767.00,277.00 L 796.00,248.00 L 797.00,248.00 L 798.00,246.00 L 799.00,246.00 L 814.00,231.00 L 815.00,231.00 L 820.00,226.00 L 821.00,226.00 L 822.00,224.00 L 823.00,224.00 L 830.00,217.00 L 831.00,217.00 L 837.00,211.00 L 838.00,211.00 L 843.00,206.00 L 844.00,206.00 L 850.00,200.00 L 851.00,200.00 L 861.00,191.00 L 862.00,191.00 L 865.00,188.00 L 866.00,188.00 L 870.00,184.00 L 871.00,184.00 L 875.00,180.00 L 876.00,180.00 L 879.00,177.00 L 880.00,177.00 L 883.00,174.00 L 884.00,174.00 L 887.00,171.00 L 888.00,171.00 L 896.00,164.00 L 897.00,162.00 L 897.00,159.00 Z" fill="var(--check)"/>
  </g>
</svg>
