<?xml version='1.0' encoding='utf-8'?>
<svg xmlns="http://www.w3.org/2000/svg" viewBox="0 0 512 512">
  <style>:root {
  --bg: transparent; /* or e.g. #2f3134 */
  --toast: #efeedd;
  --check: #efeedd;
  /* fallback single-color for single-path files */
  --line: var(--toast);
}
.bg { fill: var(--bg); }
.toast { fill: var(--toast); }
.check { fill: var(--check); }
.line { fill: var(--line); }</style><rect width="100%" height="100%" class="bg" />
  <path d="M 461.00,60.00 L 459.00,61.00 L 457.00,62.00 L 455.00,63.00 L 453.00,63.00 L 451.00,64.00 L 449.00,65.00 L 448.00,66.00 L 446.00,67.00 L 444.00,68.00 L 442.00,69.00 L 440.00,69.00 L 439.00,71.00 L 437.00,72.00 L 435.00,73.00 L 433.00,74.00 L 431.00,76.00 L 429.00,77.00 L 427.00,78.00 L 425.00,79.00 L 423.00,81.00 L 421.00,82.00 L 419.00,84.00 L 417.00,85.00 L 415.00,86.00 L 414.00,88.00 L 412.00,88.00 L 410.00,90.00 L 408.00,92.00 L 406.00,93.00 L 404.00,95.00 L 402.00,97.00 L 400.00,98.00 L 398.00,100.00 L 396.00,102.00 L 394.00,102.00 L 393.00,104.00 L 392.00,106.00 L 390.00,106.00 L 389.00,108.00 L 387.00,110.00 L 385.00,111.00 L 384.00,113.00 L 382.00,114.00 L 380.00,116.00 L 379.00,118.00 L 377.00,119.00 L 376.00,121.00 L 374.00,123.00 L 372.00,124.00 L 371.00,126.00 L 369.00,127.00 L 367.00,129.00 L 366.00,131.00 L 364.00,132.00 L 363.00,134.00 L 361.00,135.00 L 359.00,137.00 L 358.00,139.00 L 356.00,140.00 L 355.00,142.00 L 353.00,144.00 L 352.00,145.00 L 351.00,147.00 L 349.00,149.00 L 347.00,151.00 L 345.00,153.00 L 343.00,155.00 L 341.00,157.00 L 340.00,159.00 L 338.00,161.00 L 336.00,163.00 L 334.00,165.00 L 333.00,167.00 L 332.00,169.00 L 330.00,170.00 L 329.00,172.00 L 328.00,174.00 L 326.00,176.00 L 324.00,178.00 L 323.00,180.00 L 321.00,182.00 L 320.00,184.00 L 318.00,186.00 L 316.00,188.00 L 316.00,190.00 L 314.00,191.00 L 313.00,193.00 L 312.00,195.00 L 310.00,197.00 L 308.00,199.00 L 307.00,201.00 L 305.00,203.00 L 303.00,205.00 L 303.00,207.00 L 301.00,208.00 L 300.00,210.00 L 299.00,212.00 L 297.00,214.00 L 296.00,216.00 L 294.00,218.00 L 293.00,220.00 L 292.00,222.00 L 291.00,224.00 L 289.00,226.00 L 288.00,228.00 L 286.00,230.00 L 285.00,232.00 L 283.00,234.00 L 283.00,236.00 L 281.00,238.00 L 280.00,239.00 L 279.00,241.00 L 278.00,243.00 L 276.00,245.00 L 275.00,247.00 L 274.00,249.00 L 272.00,250.00 L 272.00,252.00 L 270.00,254.00 L 269.00,256.00 L 267.00,258.00 L 267.00,260.00 L 265.00,262.00 L 264.00,264.00 L 263.00,266.00 L 261.00,268.00 L 261.00,270.00 L 259.00,271.00 L 258.00,273.00 L 257.00,275.00 L 255.00,277.00 L 254.00,279.00 L 254.00,281.00 L 252.00,283.00 L 251.00,284.00 L 250.00,286.00 L 249.00,288.00 L 247.00,290.00 L 246.00,292.00 L 246.00,294.00 L 245.00,296.00 L 243.00,298.00 L 242.00,300.00 L 240.00,302.00 L 240.00,304.00 L 238.00,305.00 L 238.00,307.00 L 237.00,309.00 L 235.00,311.00 L 234.00,313.00 L 233.00,315.00 L 232.00,317.00 L 231.00,319.00 L 229.00,321.00 L 228.00,323.00 L 228.00,325.00 L 226.00,327.00 L 225.00,329.00 L 224.00,331.00 L 224.00,333.00 L 223.00,335.00 L 221.00,337.00 L 219.00,336.00 L 218.00,334.00 L 216.00,333.00 L 216.00,331.00 L 214.00,329.00 L 213.00,327.00 L 211.00,325.00 L 210.00,323.00 L 209.00,322.00 L 207.00,320.00 L 206.00,318.00 L 205.00,316.00 L 203.00,314.00 L 202.00,312.00 L 200.00,310.00 L 199.00,308.00 L 197.00,306.00 L 196.00,305.00 L 194.00,303.00 L 194.00,301.00 L 192.00,299.00 L 190.00,297.00 L 189.00,295.00 L 187.00,293.00 L 186.00,291.00 L 184.00,289.00 L 182.00,287.00 L 182.00,285.00 L 180.00,283.00 L 178.00,282.00 L 178.00,280.00 L 176.00,278.00 L 174.00,276.00 L 172.00,274.00 L 170.00,272.00 L 169.00,270.00 L 167.00,268.00 L 165.00,266.00 L 163.00,264.00 L 161.00,262.00 L 159.00,261.00 L 157.00,259.00 L 155.00,259.00 L 153.00,259.00 L 151.00,259.00 L 149.00,259.00 L 148.00,261.00 L 146.00,261.00 L 144.00,263.00 L 144.00,265.00 L 143.00,267.00 L 143.00,269.00 L 144.00,271.00 L 145.00,273.00 L 146.00,275.00 L 148.00,276.00 L 149.00,278.00 L 150.00,280.00 L 152.00,282.00 L 154.00,284.00 L 156.00,286.00 L 158.00,288.00 L 160.00,290.00 L 161.00,292.00 L 163.00,294.00 L 164.00,296.00 L 165.00,298.00 L 167.00,299.00 L 169.00,301.00 L 169.00,303.00 L 171.00,305.00 L 173.00,307.00 L 174.00,309.00 L 175.00,311.00 L 176.00,312.00 L 178.00,314.00 L 179.00,316.00 L 181.00,317.00 L 181.00,319.00 L 182.00,321.00 L 184.00,323.00 L 186.00,325.00 L 187.00,327.00 L 188.00,328.00 L 190.00,330.00 L 190.00,332.00 L 192.00,334.00 L 194.00,335.00 L 194.00,337.00 L 196.00,339.00 L 196.00,341.00 L 198.00,342.00 L 200.00,344.00 L 200.00,346.00 L 202.00,347.00 L 203.00,349.00 L 204.00,351.00 L 205.00,353.00 L 207.00,355.00 L 207.00,357.00 L 209.00,359.00 L 210.00,361.00 L 212.00,363.00 L 213.00,365.00 L 215.00,367.00 L 217.00,368.00 L 219.00,370.00 L 221.00,370.00 L 223.00,370.00 L 225.00,369.00 L 227.00,368.00 L 229.00,366.00 L 231.00,364.00 L 232.00,362.00 L 233.00,360.00 L 234.00,358.00 L 235.00,357.00 L 236.00,355.00 L 237.00,353.00 L 237.00,351.00 L 239.00,350.00 L 239.00,348.00 L 240.00,346.00 L 242.00,344.00 L 243.00,342.00 L 244.00,340.00 L 245.00,338.00 L 246.00,336.00 L 247.00,334.00 L 249.00,332.00 L 249.00,330.00 L 250.00,328.00 L 252.00,326.00 L 253.00,324.00 L 253.00,322.00 L 254.00,320.00 L 256.00,318.00 L 257.00,316.00 L 258.00,314.00 L 259.00,312.00 L 260.00,311.00 L 261.00,309.00 L 262.00,307.00 L 264.00,305.00 L 265.00,303.00 L 266.00,301.00 L 267.00,299.00 L 268.00,297.00 L 270.00,295.00 L 270.00,293.00 L 272.00,291.00 L 273.00,290.00 L 274.00,288.00 L 275.00,286.00 L 277.00,284.00 L 278.00,282.00 L 278.00,280.00 L 280.00,278.00 L 281.00,276.00 L 283.00,274.00 L 284.00,272.00 L 286.00,270.00 L 286.00,268.00 L 288.00,266.00 L 289.00,264.00 L 290.00,262.00 L 292.00,260.00 L 292.00,258.00 L 294.00,257.00 L 294.00,255.00 L 296.00,253.00 L 297.00,251.00 L 299.00,249.00 L 299.00,247.00 L 301.00,245.00 L 301.00,244.00 L 303.00,242.00 L 304.00,240.00 L 306.00,238.00 L 307.00,236.00 L 308.00,234.00 L 309.00,232.00 L 311.00,230.00 L 312.00,228.00 L 314.00,226.00 L 315.00,224.00 L 317.00,222.00 L 318.00,220.00 L 319.00,219.00 L 320.00,217.00 L 321.00,215.00 L 323.00,213.00 L 325.00,211.00 L 326.00,209.00 L 328.00,207.00 L 329.00,205.00 L 330.00,203.00 L 332.00,202.00 L 332.00,200.00 L 334.00,198.00 L 336.00,196.00 L 337.00,194.00 L 339.00,192.00 L 340.00,190.00 L 342.00,188.00 L 343.00,186.00 L 344.00,184.00 L 346.00,182.00 L 347.00,180.00 L 349.00,178.00 L 351.00,176.00 L 353.00,174.00 L 354.00,172.00 L 355.00,170.00 L 357.00,169.00 L 358.00,167.00 L 359.00,165.00 L 361.00,163.00 L 363.00,161.00 L 364.00,159.00 L 366.00,157.00 L 368.00,155.00 L 370.00,153.00 L 371.00,151.00 L 372.00,149.00 L 374.00,148.00 L 376.00,146.00 L 377.00,144.00 L 379.00,143.00 L 379.00,141.00 L 381.00,139.00 L 383.00,137.00 L 385.00,135.00 L 387.00,133.00 L 389.00,131.00 L 390.00,129.00 L 392.00,127.00 L 394.00,125.00 L 396.00,123.00 L 398.00,121.00 L 400.00,119.00 L 402.00,117.00 L 404.00,115.00 L 406.00,113.00 L 408.00,111.00 L 410.00,109.00 L 412.00,108.00 L 413.00,106.00 L 415.00,104.00 L 417.00,102.00 L 419.00,101.00 L 421.00,99.00 L 423.00,97.00 L 425.00,95.00 L 427.00,93.00 L 429.00,92.00 L 431.00,91.00 L 432.00,89.00 L 434.00,88.00 L 435.00,86.00 L 437.00,85.00 L 439.00,83.00 L 441.00,82.00 L 443.00,80.00 L 445.00,79.00 L 447.00,77.00 L 449.00,75.00 L 451.00,75.00 L 452.00,73.00 L 454.00,72.00 L 456.00,70.00 L 458.00,69.00 L 460.00,67.00 L 462.00,66.00 L 464.00,64.00 L 464.00,62.00 L 464.00,60.00 L 462.00,60.00 Z M 215.00,47.00 L 207.00,48.00 L 199.00,48.00 L 191.00,50.00 L 183.00,51.00 L 175.00,52.00 L 168.00,54.00 L 160.00,56.00 L 152.00,57.00 L 145.00,60.00 L 138.00,63.00 L 130.00,65.00 L 122.00,69.00 L 114.00,73.00 L 107.00,76.00 L 100.00,80.00 L 92.00,85.00 L 84.00,90.00 L 76.00,98.00 L 69.00,104.00 L 62.00,112.00 L 57.00,119.00 L 54.00,127.00 L 51.00,134.00 L 48.00,141.00 L 47.00,149.00 L 47.00,157.00 L 48.00,165.00 L 50.00,172.00 L 53.00,180.00 L 58.00,188.00 L 66.00,196.00 L 72.00,204.00 L 77.00,212.00 L 80.00,220.00 L 82.00,228.00 L 84.00,235.00 L 85.00,243.00 L 85.00,251.00 L 85.00,259.00 L 85.00,267.00 L 85.00,275.00 L 84.00,283.00 L 84.00,291.00 L 84.00,299.00 L 84.00,307.00 L 82.00,314.00 L 82.00,322.00 L 82.00,330.00 L 81.00,338.00 L 81.00,346.00 L 81.00,354.00 L 81.00,362.00 L 81.00,370.00 L 81.00,378.00 L 81.00,386.00 L 81.00,394.00 L 82.00,402.00 L 84.00,410.00 L 85.00,418.00 L 88.00,426.00 L 90.00,434.00 L 95.00,441.00 L 103.00,449.00 L 110.00,454.00 L 118.00,456.00 L 125.00,459.00 L 133.00,460.00 L 141.00,461.00 L 149.00,461.00 L 157.00,461.00 L 165.00,463.00 L 173.00,463.00 L 181.00,463.00 L 189.00,463.00 L 197.00,463.00 L 205.00,463.00 L 213.00,463.00 L 221.00,464.00 L 229.00,464.00 L 237.00,464.00 L 245.00,464.00 L 253.00,464.00 L 261.00,464.00 L 269.00,464.00 L 277.00,464.00 L 285.00,463.00 L 293.00,463.00 L 301.00,463.00 L 309.00,463.00 L 317.00,463.00 L 325.00,461.00 L 333.00,461.00 L 341.00,460.00 L 349.00,460.00 L 357.00,457.00 L 365.00,455.00 L 373.00,452.00 L 381.00,446.00 L 388.00,438.00 L 392.00,431.00 L 395.00,423.00 L 397.00,415.00 L 398.00,407.00 L 398.00,399.00 L 400.00,391.00 L 400.00,383.00 L 400.00,375.00 L 400.00,367.00 L 400.00,359.00 L 400.00,351.00 L 400.00,343.00 L 398.00,335.00 L 398.00,327.00 L 399.00,319.00 L 397.00,311.00 L 397.00,303.00 L 397.00,295.00 L 397.00,287.00 L 396.00,279.00 L 396.00,271.00 L 396.00,263.00 L 396.00,255.00 L 396.00,247.00 L 397.00,239.00 L 398.00,231.00 L 400.00,224.00 L 402.00,216.00 L 406.00,209.00 L 411.00,202.00 L 417.00,195.00 L 424.00,187.00 L 429.00,180.00 L 432.00,172.00 L 434.00,164.00 L 434.00,156.00 L 434.00,148.00 L 433.00,140.00 L 430.00,133.00 L 426.00,125.00 L 421.00,120.00 L 424.00,128.00 L 427.00,136.00 L 430.00,144.00 L 431.00,152.00 L 431.00,160.00 L 430.00,168.00 L 427.00,175.00 L 422.00,183.00 L 417.00,190.00 L 411.00,197.00 L 406.00,205.00 L 401.00,212.00 L 398.00,219.00 L 396.00,227.00 L 394.00,235.00 L 393.00,243.00 L 393.00,251.00 L 393.00,259.00 L 393.00,267.00 L 393.00,275.00 L 393.00,283.00 L 393.00,291.00 L 393.00,299.00 L 394.00,307.00 L 394.00,315.00 L 394.00,323.00 L 396.00,331.00 L 396.00,339.00 L 396.00,347.00 L 396.00,355.00 L 397.00,363.00 L 397.00,371.00 L 397.00,379.00 L 396.00,387.00 L 396.00,395.00 L 394.00,402.00 L 394.00,410.00 L 393.00,418.00 L 390.00,426.00 L 386.00,434.00 L 380.00,441.00 L 374.00,448.00 L 366.00,452.00 L 359.00,455.00 L 351.00,456.00 L 343.00,457.00 L 335.00,458.00 L 327.00,458.00 L 319.00,460.00 L 311.00,460.00 L 303.00,460.00 L 295.00,460.00 L 287.00,460.00 L 279.00,461.00 L 271.00,461.00 L 263.00,461.00 L 255.00,461.00 L 247.00,461.00 L 239.00,461.00 L 231.00,461.00 L 223.00,461.00 L 215.00,461.00 L 207.00,461.00 L 199.00,460.00 L 191.00,460.00 L 183.00,460.00 L 175.00,460.00 L 167.00,460.00 L 159.00,460.00 L 151.00,458.00 L 143.00,458.00 L 135.00,457.00 L 127.00,456.00 L 119.00,453.00 L 111.00,449.00 L 104.00,444.00 L 97.00,438.00 L 93.00,430.00 L 89.00,422.00 L 88.00,414.00 L 87.00,406.00 L 85.00,398.00 L 85.00,390.00 L 84.00,382.00 L 84.00,374.00 L 84.00,366.00 L 84.00,358.00 L 84.00,350.00 L 85.00,342.00 L 85.00,334.00 L 85.00,326.00 L 85.00,318.00 L 87.00,311.00 L 87.00,303.00 L 87.00,295.00 L 88.00,287.00 L 88.00,279.00 L 88.00,271.00 L 88.00,263.00 L 88.00,255.00 L 88.00,247.00 L 88.00,239.00 L 87.00,231.00 L 84.00,223.00 L 82.00,216.00 L 79.00,208.00 L 74.00,201.00 L 68.00,194.00 L 63.00,187.00 L 58.00,180.00 L 54.00,172.00 L 51.00,164.00 L 51.00,156.00 L 51.00,148.00 L 52.00,140.00 L 54.00,133.00 L 58.00,126.00 L 63.00,118.00 L 67.00,111.00 L 75.00,103.00 L 83.00,97.00 L 90.00,91.00 L 97.00,86.00 L 105.00,81.00 L 113.00,77.00 L 121.00,72.00 L 129.00,70.00 L 137.00,66.00 L 145.00,63.00 L 152.00,61.00 L 160.00,59.00 L 168.00,58.00 L 175.00,56.00 L 183.00,54.00 L 191.00,53.00 L 199.00,53.00 L 207.00,51.00 L 215.00,51.00 L 223.00,50.00 L 231.00,50.00 L 239.00,50.00 L 247.00,50.00 L 255.00,50.00 L 263.00,50.00 L 271.00,51.00 L 279.00,52.00 L 286.00,53.00 L 294.00,54.00 L 302.00,55.00 L 310.00,57.00 L 318.00,59.00 L 326.00,62.00 L 334.00,64.00 L 341.00,66.00 L 349.00,70.00 L 357.00,72.00 L 365.00,77.00 L 372.00,80.00 L 380.00,85.00 L 388.00,88.00 L 382.00,82.00 L 375.00,77.00 L 367.00,73.00 L 359.00,69.00 L 351.00,67.00 L 344.00,64.00 L 336.00,61.00 L 328.00,59.00 L 320.00,56.00 L 312.00,55.00 L 304.00,52.00 L 296.00,51.00 L 288.00,50.00 L 281.00,48.00 L 273.00,48.00 L 265.00,47.00 L 257.00,47.00 L 249.00,47.00 L 241.00,47.00 L 233.00,47.00 L 225.00,47.00 L 217.00,47.00 Z M 211.00,26.00 L 202.00,27.00 L 193.00,29.00 L 184.00,30.00 L 175.00,31.00 L 167.00,33.00 L 158.00,34.00 L 149.00,37.00 L 140.00,39.00 L 131.00,43.00 L 122.00,46.00 L 114.00,50.00 L 105.00,53.00 L 96.00,57.00 L 88.00,63.00 L 79.00,68.00 L 71.00,73.00 L 63.00,80.00 L 56.00,87.00 L 48.00,94.00 L 42.00,103.00 L 36.00,112.00 L 32.00,121.00 L 29.00,130.00 L 27.00,139.00 L 26.00,148.00 L 26.00,157.00 L 26.00,166.00 L 28.00,175.00 L 31.00,184.00 L 35.00,193.00 L 41.00,201.00 L 48.00,210.00 L 54.00,216.00 L 59.00,225.00 L 61.00,234.00 L 63.00,243.00 L 63.00,252.00 L 63.00,261.00 L 63.00,270.00 L 63.00,279.00 L 62.00,288.00 L 61.00,296.00 L 61.00,305.00 L 60.00,314.00 L 60.00,323.00 L 60.00,332.00 L 59.00,341.00 L 59.00,350.00 L 59.00,359.00 L 59.00,368.00 L 59.00,377.00 L 59.00,386.00 L 59.00,395.00 L 60.00,404.00 L 61.00,413.00 L 63.00,421.00 L 64.00,430.00 L 67.00,439.00 L 72.00,448.00 L 77.00,457.00 L 86.00,465.00 L 94.00,471.00 L 102.00,475.00 L 111.00,478.00 L 119.00,480.00 L 128.00,481.00 L 137.00,482.00 L 145.00,484.00 L 154.00,484.00 L 163.00,484.00 L 172.00,484.00 L 181.00,484.00 L 190.00,485.00 L 199.00,485.00 L 208.00,485.00 L 217.00,485.00 L 226.00,485.00 L 235.00,485.00 L 244.00,485.00 L 253.00,485.00 L 262.00,485.00 L 271.00,485.00 L 280.00,485.00 L 289.00,485.00 L 298.00,484.00 L 307.00,484.00 L 316.00,484.00 L 325.00,484.00 L 334.00,484.00 L 343.00,482.00 L 352.00,482.00 L 361.00,480.00 L 370.00,478.00 L 379.00,475.00 L 387.00,471.00 L 395.00,465.00 L 404.00,457.00 L 410.00,448.00 L 414.00,439.00 L 417.00,431.00 L 418.00,422.00 L 420.00,413.00 L 421.00,405.00 L 422.00,396.00 L 422.00,387.00 L 422.00,378.00 L 422.00,369.00 L 422.00,360.00 L 422.00,351.00 L 421.00,342.00 L 421.00,333.00 L 421.00,324.00 L 419.00,316.00 L 419.00,307.00 L 419.00,298.00 L 418.00,289.00 L 418.00,280.00 L 418.00,271.00 L 417.00,262.00 L 418.00,253.00 L 418.00,244.00 L 419.00,235.00 L 422.00,226.00 L 426.00,217.00 L 433.00,209.00 L 442.00,200.00 L 447.00,191.00 L 451.00,182.00 L 454.00,173.00 L 455.00,164.00 L 456.00,155.00 L 455.00,146.00 L 454.00,137.00 L 451.00,129.00 L 448.00,121.00 L 444.00,112.00 L 438.00,106.00 L 436.00,114.00 L 441.00,123.00 L 445.00,132.00 L 447.00,140.00 L 448.00,149.00 L 448.00,158.00 L 448.00,167.00 L 445.00,176.00 L 441.00,185.00 L 436.00,194.00 L 430.00,202.00 L 423.00,210.00 L 418.00,219.00 L 414.00,228.00 L 411.00,237.00 L 410.00,246.00 L 410.00,255.00 L 410.00,264.00 L 410.00,273.00 L 411.00,282.00 L 411.00,291.00 L 411.00,300.00 L 412.00,308.00 L 413.00,317.00 L 413.00,326.00 L 414.00,335.00 L 414.00,344.00 L 414.00,353.00 L 414.00,362.00 L 414.00,371.00 L 414.00,380.00 L 414.00,389.00 L 414.00,398.00 L 413.00,407.00 L 412.00,416.00 L 410.00,425.00 L 407.00,434.00 L 404.00,443.00 L 398.00,451.00 L 389.00,460.00 L 381.00,465.00 L 372.00,470.00 L 363.00,473.00 L 354.00,474.00 L 345.00,476.00 L 336.00,476.00 L 327.00,477.00 L 318.00,477.00 L 309.00,477.00 L 300.00,477.00 L 291.00,478.00 L 282.00,478.00 L 273.00,478.00 L 264.00,478.00 L 255.00,478.00 L 246.00,478.00 L 237.00,478.00 L 228.00,478.00 L 219.00,478.00 L 210.00,478.00 L 201.00,478.00 L 192.00,478.00 L 183.00,477.00 L 174.00,477.00 L 165.00,477.00 L 156.00,477.00 L 147.00,476.00 L 138.00,476.00 L 129.00,474.00 L 120.00,473.00 L 111.00,470.00 L 102.00,466.00 L 93.00,461.00 L 84.00,452.00 L 78.00,444.00 L 74.00,436.00 L 72.00,427.00 L 70.00,418.00 L 68.00,409.00 L 67.00,400.00 L 67.00,391.00 L 67.00,382.00 L 66.00,373.00 L 67.00,364.00 L 67.00,355.00 L 67.00,346.00 L 67.00,337.00 L 68.00,328.00 L 68.00,319.00 L 68.00,310.00 L 70.00,301.00 L 70.00,292.00 L 70.00,283.00 L 71.00,274.00 L 71.00,265.00 L 71.00,256.00 L 71.00,247.00 L 70.00,238.00 L 68.00,229.00 L 64.00,220.00 L 60.00,211.00 L 54.00,203.00 L 46.00,194.00 L 40.00,185.00 L 36.00,176.00 L 34.00,167.00 L 33.00,158.00 L 33.00,149.00 L 34.00,140.00 L 37.00,131.00 L 40.00,122.00 L 44.00,114.00 L 50.00,106.00 L 56.00,97.00 L 63.00,90.00 L 72.00,83.00 L 81.00,76.00 L 90.00,70.00 L 99.00,65.00 L 107.00,60.00 L 115.00,56.00 L 124.00,53.00 L 133.00,49.00 L 142.00,47.00 L 151.00,43.00 L 160.00,42.00 L 169.00,39.00 L 178.00,38.00 L 187.00,37.00 L 196.00,35.00 L 205.00,34.00 L 214.00,34.00 L 223.00,33.00 L 232.00,33.00 L 241.00,33.00 L 250.00,33.00 L 259.00,33.00 L 268.00,34.00 L 277.00,35.00 L 286.00,36.00 L 295.00,37.00 L 304.00,39.00 L 313.00,41.00 L 322.00,42.00 L 331.00,45.00 L 340.00,48.00 L 349.00,50.00 L 358.00,54.00 L 366.00,58.00 L 375.00,63.00 L 383.00,67.00 L 392.00,72.00 L 400.00,77.00 L 402.00,70.00 L 394.00,65.00 L 385.00,60.00 L 376.00,55.00 L 367.00,51.00 L 358.00,46.00 L 350.00,43.00 L 342.00,40.00 L 333.00,38.00 L 324.00,35.00 L 315.00,34.00 L 306.00,31.00 L 297.00,30.00 L 288.00,29.00 L 279.00,27.00 L 270.00,27.00 L 261.00,26.00 L 252.00,26.00 L 243.00,26.00 L 234.00,26.00 L 225.00,26.00 L 216.00,26.00 Z" fill-rule="evenodd" class="line" />
</svg>