<?xml version="1.0" encoding="UTF-8"?>
<svg xmlns="http://www.w3.org/2000/svg" viewBox="0 0 1024 1024" role="img">
  <style>
    :root {
      --bg: #2f3134;
      --toast: #efeedd;
      --check: #efeedd;
      --line: var(--toast);
    }
  </style>
  <rect width="100%" height="100%" fill="var(--bg)"/>
  <g id="toast" fill="var(--toast)">
    <path d="M 249.61,227.05 L 232.51,241.30 L 224.91,249.85 L 223.01,250.80 L 214.46,262.20 L 212.56,263.15 L 204.96,274.55 L 197.36,289.75 L 193.56,301.15 L 193.56,304.95 L 191.66,310.65 L 191.66,316.35 L 190.71,317.30 L 190.71,343.90 L 191.66,344.85 L 191.66,349.60 L 192.61,350.55 L 193.56,358.15 L 199.26,373.35 L 204.96,382.85 L 223.01,402.80 L 230.61,413.25 L 240.11,431.30 L 243.91,442.70 L 243.91,446.50 L 244.86,447.45 L 245.81,455.05 L 246.76,456.00 L 246.76,460.75 L 247.71,461.70 L 248.66,479.75 L 249.61,480.70 L 249.61,517.75 L 248.66,518.70 L 247.71,561.45 L 246.76,562.40 L 246.76,580.45 L 245.81,581.40 L 243.91,633.65 L 242.96,634.60 L 242.96,665.95 L 242.01,666.90 L 242.96,725.80 L 243.91,726.75 L 243.91,737.20 L 244.86,738.15 L 245.81,751.45 L 246.76,752.40 L 246.76,757.15 L 247.71,758.10 L 250.56,774.25 L 258.16,793.25 L 267.66,807.50 L 275.26,815.10 L 281.91,819.85 L 297.11,827.45 L 319.91,834.10 L 338.91,836.00 L 339.86,836.95 L 351.26,836.95 L 352.21,837.90 L 406.36,838.85 L 407.31,839.80 L 445.31,839.80 L 446.26,840.75 L 583.06,840.75 L 584.01,839.80 L 619.16,839.80 L 620.11,838.85 L 670.46,837.90 L 671.41,836.95 L 688.51,836.00 L 689.46,835.05 L 694.21,835.05 L 703.71,832.20 L 707.51,832.20 L 723.66,826.50 L 735.06,820.80 L 745.51,813.20 L 757.86,798.00 L 764.51,783.75 L 769.26,767.60 L 770.21,759.05 L 771.16,758.10 L 772.11,746.70 L 773.06,745.75 L 773.06,738.15 L 774.01,737.20 L 774.01,728.65 L 774.96,727.70 L 774.96,702.05 L 775.91,701.10 L 774.96,635.55 L 774.01,634.60 L 773.06,598.50 L 772.11,597.55 L 772.11,584.25 L 771.16,583.30 L 771.16,566.20 L 770.21,565.25 L 770.21,549.10 L 769.26,548.15 L 769.26,526.30 L 768.31,525.35 L 768.31,481.65 L 769.26,480.70 L 770.21,461.70 L 771.16,460.75 L 774.01,443.65 L 778.76,432.25 L 779.71,427.50 L 781.61,425.60 L 783.51,419.90 L 786.36,417.05 L 786.36,415.15 L 794.91,403.75 L 812.01,384.75 L 819.61,372.40 L 820.56,367.65 L 823.41,361.95 L 825.31,350.55 L 826.26,349.60 L 826.26,342.95 L 827.21,342.00 L 827.21,323.00 L 826.26,322.05 L 826.26,315.40 L 825.31,314.45 L 825.31,309.70 L 824.36,308.75 L 823.41,302.10 L 817.71,285.95 L 808.21,268.85 L 806.31,266.95 L 793.01,279.30 L 804.41,300.20 L 805.36,306.85 L 808.21,314.45 L 808.21,320.15 L 809.16,321.10 L 809.16,343.90 L 808.21,344.85 L 807.26,354.35 L 803.46,364.80 L 793.01,380.00 L 791.11,380.95 L 779.71,394.25 L 769.26,409.45 L 764.51,418.95 L 764.51,420.85 L 762.61,422.75 L 756.91,438.90 L 755.96,446.50 L 754.06,451.25 L 754.06,456.00 L 753.11,456.95 L 753.11,462.65 L 752.16,463.60 L 752.16,473.10 L 751.21,474.05 L 751.21,537.70 L 752.16,538.65 L 752.16,560.50 L 753.11,561.45 L 754.06,595.65 L 755.01,596.60 L 755.96,630.80 L 756.91,631.75 L 757.86,710.60 L 756.91,711.55 L 755.96,738.15 L 755.01,739.10 L 755.01,746.70 L 754.06,747.65 L 754.06,752.40 L 752.16,758.10 L 752.16,762.85 L 746.46,780.90 L 739.81,792.30 L 729.36,802.75 L 717.96,809.40 L 698.01,816.05 L 688.51,817.00 L 687.56,817.95 L 681.86,817.95 L 680.91,818.90 L 672.36,818.90 L 671.41,819.85 L 624.86,820.80 L 623.91,821.75 L 596.36,821.75 L 595.41,822.70 L 545.06,822.70 L 544.11,823.65 L 433.91,822.70 L 432.96,821.75 L 399.71,821.75 L 398.76,820.80 L 351.26,819.85 L 350.31,818.90 L 333.21,817.95 L 332.26,817.00 L 327.51,817.00 L 326.56,816.05 L 314.21,814.15 L 300.91,809.40 L 299.01,807.50 L 292.36,804.65 L 279.06,792.30 L 273.36,783.75 L 266.71,764.75 L 264.81,750.50 L 263.86,749.55 L 263.86,744.80 L 262.91,743.85 L 262.91,737.20 L 261.96,736.25 L 261.01,710.60 L 260.06,709.65 L 261.01,630.80 L 261.96,629.85 L 261.96,610.85 L 262.91,609.90 L 262.91,591.85 L 263.86,590.90 L 263.86,575.70 L 264.81,574.75 L 264.81,560.50 L 265.76,559.55 L 265.76,534.85 L 266.71,533.90 L 266.71,471.20 L 265.76,470.25 L 264.81,455.05 L 263.86,454.10 L 261.96,441.75 L 260.06,437.95 L 260.06,435.10 L 257.21,426.55 L 249.61,411.35 L 249.61,409.45 L 239.16,394.25 L 221.11,374.30 L 217.31,368.60 L 213.51,361.00 L 209.71,348.65 L 209.71,344.85 L 208.76,343.90 L 208.76,317.30 L 209.71,316.35 L 210.66,307.80 L 215.41,293.55 L 217.31,291.65 L 218.26,287.85 L 223.96,278.35 L 236.31,263.15 L 238.21,262.20 L 244.86,254.60 L 261.01,241.30 L 286.66,224.20 L 308.51,212.80 L 310.41,212.80 L 330.36,203.30 L 366.46,190.95 L 369.31,190.95 L 389.26,185.25 L 393.06,185.25 L 397.81,183.35 L 411.11,181.45 L 412.06,180.50 L 417.76,180.50 L 423.46,178.60 L 444.36,176.70 L 445.31,175.75 L 453.86,175.75 L 454.81,174.80 L 463.36,174.80 L 464.31,173.85 L 479.51,173.85 L 480.46,172.90 L 536.51,172.90 L 537.46,173.85 L 552.66,173.85 L 553.61,174.80 L 578.31,176.70 L 579.26,177.65 L 591.61,178.60 L 592.56,179.55 L 597.31,179.55 L 598.26,180.50 L 603.01,180.50 L 603.96,181.45 L 626.76,185.25 L 627.71,186.20 L 645.76,190.00 L 652.41,192.85 L 655.26,192.85 L 658.11,194.75 L 660.96,194.75 L 678.06,200.45 L 692.31,207.10 L 698.96,209.00 L 707.51,213.75 L 709.41,213.75 L 711.31,215.65 L 715.11,216.60 L 718.91,219.45 L 725.56,222.30 L 738.86,230.85 L 744.56,226.10 L 745.51,224.20 L 751.21,220.40 L 752.16,217.55 L 734.11,206.15 L 730.31,205.20 L 728.41,203.30 L 702.76,190.95 L 691.36,187.15 L 686.61,184.30 L 679.01,182.40 L 676.16,180.50 L 667.61,178.60 L 658.11,174.80 L 651.46,173.85 L 647.66,171.95 L 641.01,171.00 L 637.21,169.10 L 633.41,169.10 L 628.66,167.20 L 624.86,167.20 L 623.91,166.25 L 620.11,166.25 L 619.16,165.30 L 615.36,165.30 L 609.66,163.40 L 604.91,163.40 L 603.96,162.45 L 599.21,162.45 L 592.56,160.55 L 586.86,160.55 L 585.91,159.60 L 571.66,158.65 L 570.71,157.70 L 549.81,156.75 L 548.86,155.80 L 532.71,155.80 L 531.76,154.85 L 486.16,154.85 L 485.21,155.80 L 453.86,156.75 L 452.91,157.70 L 444.36,157.70 L 443.41,158.65 L 422.51,160.55 L 421.56,161.50 L 416.81,161.50 L 415.86,162.45 L 411.11,162.45 L 410.16,163.40 L 395.91,165.30 L 394.96,166.25 L 387.36,167.20 L 386.41,168.15 L 364.56,172.90 L 360.76,174.80 L 357.91,174.80 L 324.66,186.20 L 315.16,190.95 L 308.51,192.85 L 298.06,198.55 L 296.16,198.55 L 294.26,200.45 L 288.56,202.35 L 280.01,208.05 L 278.11,208.05 Z"/>
    <path d="M 208.00,190.00 L 204.00,195.00 L 203.00,195.00 L 199.00,199.00 L 198.00,199.00 L 195.00,202.00 L 194.00,202.00 L 175.00,222.00 L 174.00,225.00 L 170.00,228.00 L 170.00,229.00 L 168.00,231.00 L 168.00,232.00 L 165.00,235.00 L 165.00,236.00 L 159.00,244.00 L 159.00,245.00 L 158.00,246.00 L 158.00,247.00 L 157.00,248.00 L 157.00,249.00 L 156.00,250.00 L 156.00,251.00 L 155.00,252.00 L 155.00,253.00 L 149.00,264.00 L 149.00,267.00 L 148.00,268.00 L 148.00,269.00 L 146.00,272.00 L 146.00,274.00 L 143.00,279.00 L 143.00,284.00 L 142.00,285.00 L 142.00,287.00 L 141.00,288.00 L 141.00,290.00 L 140.00,291.00 L 140.00,296.00 L 139.00,297.00 L 139.00,303.00 L 138.00,304.00 L 138.00,311.00 L 137.00,312.00 L 137.00,338.00 L 138.00,339.00 L 138.00,347.00 L 139.00,348.00 L 139.00,353.00 L 140.00,354.00 L 140.00,357.00 L 141.00,358.00 L 141.00,363.00 L 142.00,364.00 L 142.00,367.00 L 148.00,378.00 L 148.00,381.00 L 149.00,382.00 L 152.00,389.00 L 154.00,391.00 L 157.00,398.00 L 160.00,401.00 L 160.00,402.00 L 163.00,405.00 L 163.00,406.00 L 165.00,408.00 L 166.00,408.00 L 172.00,414.00 L 172.00,415.00 L 179.00,422.00 L 179.00,423.00 L 185.00,430.00 L 185.00,431.00 L 186.00,432.00 L 186.00,433.00 L 187.00,434.00 L 187.00,435.00 L 188.00,436.00 L 188.00,437.00 L 194.00,448.00 L 194.00,453.00 L 195.00,454.00 L 195.00,456.00 L 196.00,457.00 L 196.00,459.00 L 197.00,460.00 L 197.00,467.00 L 198.00,468.00 L 198.00,474.00 L 199.00,475.00 L 199.00,493.00 L 200.00,494.00 L 200.00,512.00 L 199.00,513.00 L 199.00,539.00 L 198.00,540.00 L 198.00,559.00 L 197.00,560.00 L 197.00,578.00 L 196.00,579.00 L 196.00,595.00 L 195.00,596.00 L 195.00,613.00 L 194.00,614.00 L 194.00,634.00 L 193.00,635.00 L 193.00,657.00 L 192.00,658.00 L 192.00,745.00 L 193.00,746.00 L 193.00,758.00 L 194.00,759.00 L 194.00,764.00 L 195.00,765.00 L 195.00,776.00 L 196.00,777.00 L 196.00,782.00 L 197.00,783.00 L 197.00,788.00 L 198.00,789.00 L 198.00,791.00 L 199.00,792.00 L 199.00,796.00 L 200.00,797.00 L 200.00,801.00 L 201.00,802.00 L 201.00,805.00 L 203.00,808.00 L 203.00,812.00 L 206.00,817.00 L 206.00,819.00 L 209.00,824.00 L 209.00,827.00 L 212.00,831.00 L 212.00,833.00 L 213.00,834.00 L 213.00,835.00 L 215.00,837.00 L 215.00,838.00 L 217.00,840.00 L 217.00,841.00 L 220.00,844.00 L 220.00,845.00 L 222.00,847.00 L 222.00,848.00 L 237.00,863.00 L 238.00,863.00 L 241.00,866.00 L 242.00,866.00 L 248.00,871.00 L 249.00,871.00 L 250.00,872.00 L 251.00,872.00 L 262.00,878.00 L 264.00,878.00 L 271.00,882.00 L 273.00,882.00 L 274.00,883.00 L 275.00,883.00 L 276.00,884.00 L 278.00,884.00 L 279.00,885.00 L 284.00,885.00 L 287.00,887.00 L 292.00,887.00 L 295.00,889.00 L 299.00,889.00 L 300.00,890.00 L 307.00,890.00 L 308.00,891.00 L 311.00,891.00 L 312.00,892.00 L 319.00,892.00 L 320.00,893.00 L 336.00,893.00 L 337.00,894.00 L 352.00,894.00 L 353.00,895.00 L 354.00,894.00 L 355.00,895.00 L 380.00,895.00 L 381.00,896.00 L 420.00,896.00 L 421.00,897.00 L 498.00,897.00 L 499.00,898.00 L 537.00,898.00 L 538.00,897.00 L 597.00,897.00 L 598.00,896.00 L 639.00,896.00 L 640.00,895.00 L 664.00,895.00 L 665.00,894.00 L 689.00,894.00 L 690.00,893.00 L 700.00,893.00 L 701.00,892.00 L 705.00,892.00 L 706.00,891.00 L 714.00,891.00 L 715.00,890.00 L 719.00,890.00 L 720.00,889.00 L 724.00,889.00 L 725.00,888.00 L 727.00,888.00 L 728.00,887.00 L 733.00,887.00 L 734.00,886.00 L 737.00,886.00 L 738.00,885.00 L 740.00,885.00 L 743.00,883.00 L 748.00,882.00 L 751.00,880.00 L 756.00,879.00 L 757.00,878.00 L 764.00,875.00 L 766.00,873.00 L 767.00,873.00 L 769.00,871.00 L 770.00,871.00 L 772.00,869.00 L 773.00,869.00 L 775.00,867.00 L 776.00,867.00 L 778.00,865.00 L 779.00,865.00 L 797.00,847.00 L 797.00,846.00 L 799.00,844.00 L 799.00,843.00 L 804.00,837.00 L 804.00,836.00 L 809.00,827.00 L 809.00,825.00 L 812.00,821.00 L 812.00,818.00 L 813.00,817.00 L 813.00,815.00 L 814.00,814.00 L 814.00,812.00 L 815.00,811.00 L 815.00,808.00 L 816.00,807.00 L 816.00,805.00 L 817.00,804.00 L 817.00,802.00 L 818.00,801.00 L 818.00,798.00 L 819.00,797.00 L 819.00,795.00 L 820.00,794.00 L 820.00,788.00 L 821.00,787.00 L 821.00,781.00 L 822.00,780.00 L 822.00,777.00 L 823.00,776.00 L 823.00,767.00 L 824.00,766.00 L 824.00,758.00 L 825.00,757.00 L 825.00,743.00 L 826.00,742.00 L 826.00,661.00 L 825.00,660.00 L 825.00,639.00 L 824.00,638.00 L 824.00,619.00 L 823.00,618.00 L 823.00,605.00 L 822.00,604.00 L 822.00,577.00 L 821.00,576.00 L 821.00,563.00 L 820.00,562.00 L 820.00,542.00 L 819.00,541.00 L 819.00,517.00 L 818.00,516.00 L 818.00,485.00 L 819.00,484.00 L 819.00,474.00 L 820.00,473.00 L 820.00,463.00 L 821.00,462.00 L 821.00,459.00 L 822.00,458.00 L 822.00,455.00 L 823.00,454.00 L 823.00,452.00 L 824.00,451.00 L 824.00,448.00 L 829.00,439.00 L 829.00,437.00 L 830.00,436.00 L 831.00,433.00 L 834.00,430.00 L 834.00,429.00 L 837.00,426.00 L 837.00,425.00 L 840.00,422.00 L 840.00,421.00 L 855.00,406.00 L 855.00,405.00 L 858.00,402.00 L 858.00,401.00 L 860.00,399.00 L 860.00,398.00 L 863.00,395.00 L 863.00,394.00 L 869.00,383.00 L 869.00,381.00 L 874.00,372.00 L 874.00,368.00 L 875.00,367.00 L 875.00,364.00 L 877.00,361.00 L 877.00,357.00 L 878.00,356.00 L 878.00,352.00 L 879.00,351.00 L 879.00,343.00 L 880.00,342.00 L 880.00,311.00 L 879.00,310.00 L 879.00,302.00 L 878.00,301.00 L 878.00,295.00 L 876.00,292.00 L 876.00,286.00 L 875.00,285.00 L 875.00,283.00 L 874.00,282.00 L 873.00,277.00 L 871.00,274.00 L 871.00,272.00 L 870.00,271.00 L 869.00,266.00 L 866.00,262.00 L 866.00,260.00 L 865.00,259.00 L 865.00,258.00 L 864.00,257.00 L 864.00,256.00 L 863.00,255.00 L 863.00,254.00 L 862.00,253.00 L 862.00,252.00 L 861.00,251.00 L 858.00,244.00 L 854.00,239.00 L 853.00,236.00 L 852.00,235.00 L 849.00,234.00 L 846.00,237.00 L 845.00,237.00 L 841.00,241.00 L 841.00,242.00 L 834.00,249.00 L 833.00,249.00 L 830.00,252.00 L 830.00,253.00 L 836.00,261.00 L 836.00,262.00 L 837.00,263.00 L 837.00,264.00 L 838.00,265.00 L 838.00,266.00 L 844.00,277.00 L 845.00,282.00 L 847.00,285.00 L 847.00,287.00 L 848.00,288.00 L 848.00,290.00 L 849.00,291.00 L 849.00,296.00 L 851.00,299.00 L 851.00,305.00 L 852.00,306.00 L 852.00,311.00 L 853.00,312.00 L 853.00,339.00 L 852.00,340.00 L 852.00,346.00 L 851.00,347.00 L 851.00,349.00 L 850.00,350.00 L 850.00,355.00 L 849.00,356.00 L 849.00,360.00 L 848.00,361.00 L 847.00,366.00 L 846.00,367.00 L 846.00,368.00 L 845.00,369.00 L 845.00,370.00 L 844.00,371.00 L 844.00,372.00 L 843.00,373.00 L 840.00,380.00 L 838.00,382.00 L 838.00,383.00 L 833.00,388.00 L 833.00,389.00 L 825.00,397.00 L 825.00,398.00 L 818.00,405.00 L 818.00,406.00 L 813.00,411.00 L 813.00,412.00 L 808.00,418.00 L 808.00,419.00 L 807.00,420.00 L 807.00,421.00 L 806.00,422.00 L 806.00,423.00 L 805.00,424.00 L 805.00,425.00 L 799.00,436.00 L 799.00,439.00 L 798.00,440.00 L 798.00,443.00 L 797.00,444.00 L 797.00,448.00 L 796.00,449.00 L 796.00,452.00 L 795.00,453.00 L 795.00,455.00 L 794.00,456.00 L 794.00,461.00 L 793.00,462.00 L 793.00,471.00 L 792.00,472.00 L 792.00,491.00 L 791.00,492.00 L 791.00,507.00 L 792.00,508.00 L 792.00,542.00 L 793.00,543.00 L 793.00,561.00 L 794.00,562.00 L 794.00,580.00 L 795.00,581.00 L 795.00,598.00 L 796.00,599.00 L 796.00,613.00 L 797.00,614.00 L 797.00,636.00 L 798.00,637.00 L 798.00,655.00 L 799.00,656.00 L 799.00,742.00 L 798.00,743.00 L 798.00,756.00 L 797.00,757.00 L 797.00,764.00 L 796.00,765.00 L 796.00,773.00 L 795.00,774.00 L 795.00,779.00 L 794.00,780.00 L 794.00,782.00 L 793.00,783.00 L 793.00,788.00 L 792.00,789.00 L 792.00,794.00 L 791.00,795.00 L 791.00,798.00 L 790.00,799.00 L 790.00,801.00 L 789.00,802.00 L 788.00,807.00 L 787.00,808.00 L 787.00,809.00 L 786.00,810.00 L 786.00,811.00 L 785.00,812.00 L 785.00,813.00 L 784.00,814.00 L 781.00,821.00 L 777.00,826.00 L 776.00,829.00 L 767.00,838.00 L 767.00,839.00 L 765.00,841.00 L 764.00,841.00 L 757.00,847.00 L 750.00,850.00 L 748.00,852.00 L 747.00,852.00 L 738.00,857.00 L 736.00,857.00 L 735.00,858.00 L 733.00,858.00 L 732.00,859.00 L 730.00,859.00 L 729.00,860.00 L 727.00,860.00 L 726.00,861.00 L 724.00,861.00 L 723.00,862.00 L 721.00,862.00 L 720.00,863.00 L 713.00,863.00 L 712.00,864.00 L 708.00,864.00 L 707.00,865.00 L 702.00,865.00 L 701.00,866.00 L 691.00,866.00 L 690.00,867.00 L 673.00,867.00 L 672.00,868.00 L 654.00,868.00 L 653.00,869.00 L 622.00,869.00 L 621.00,870.00 L 586.00,870.00 L 585.00,871.00 L 450.00,871.00 L 449.00,870.00 L 403.00,870.00 L 402.00,869.00 L 372.00,869.00 L 371.00,868.00 L 351.00,868.00 L 350.00,867.00 L 329.00,867.00 L 328.00,866.00 L 318.00,866.00 L 317.00,865.00 L 312.00,865.00 L 311.00,864.00 L 306.00,864.00 L 305.00,863.00 L 303.00,863.00 L 302.00,862.00 L 298.00,862.00 L 297.00,861.00 L 294.00,861.00 L 293.00,860.00 L 291.00,860.00 L 288.00,858.00 L 284.00,858.00 L 283.00,857.00 L 281.00,857.00 L 280.00,856.00 L 279.00,856.00 L 278.00,855.00 L 277.00,855.00 L 276.00,854.00 L 275.00,854.00 L 274.00,853.00 L 267.00,850.00 L 265.00,848.00 L 264.00,848.00 L 262.00,846.00 L 261.00,846.00 L 259.00,844.00 L 258.00,844.00 L 247.00,833.00 L 246.00,833.00 L 243.00,830.00 L 243.00,829.00 L 239.00,824.00 L 238.00,821.00 L 234.00,816.00 L 234.00,814.00 L 233.00,813.00 L 233.00,811.00 L 232.00,810.00 L 232.00,808.00 L 231.00,807.00 L 231.00,805.00 L 230.00,804.00 L 230.00,802.00 L 229.00,801.00 L 229.00,799.00 L 228.00,798.00 L 228.00,796.00 L 227.00,795.00 L 227.00,793.00 L 226.00,792.00 L 226.00,790.00 L 225.00,789.00 L 225.00,783.00 L 224.00,782.00 L 224.00,780.00 L 223.00,779.00 L 223.00,772.00 L 222.00,771.00 L 222.00,765.00 L 221.00,764.00 L 221.00,756.00 L 220.00,755.00 L 220.00,737.00 L 219.00,736.00 L 219.00,718.00 L 218.00,717.00 L 218.00,690.00 L 219.00,689.00 L 219.00,656.00 L 220.00,655.00 L 220.00,633.00 L 221.00,632.00 L 221.00,617.00 L 222.00,616.00 L 222.00,599.00 L 223.00,598.00 L 223.00,581.00 L 224.00,580.00 L 224.00,557.00 L 225.00,556.00 L 225.00,535.00 L 226.00,534.00 L 226.00,475.00 L 225.00,474.00 L 225.00,464.00 L 224.00,463.00 L 224.00,457.00 L 223.00,456.00 L 223.00,454.00 L 222.00,453.00 L 222.00,449.00 L 221.00,448.00 L 221.00,444.00 L 220.00,443.00 L 220.00,441.00 L 218.00,438.00 L 218.00,435.00 L 214.00,428.00 L 214.00,426.00 L 213.00,425.00 L 211.00,420.00 L 209.00,418.00 L 209.00,417.00 L 207.00,415.00 L 207.00,414.00 L 205.00,412.00 L 205.00,411.00 L 203.00,409.00 L 203.00,408.00 L 198.00,403.00 L 198.00,402.00 L 187.00,391.00 L 187.00,390.00 L 183.00,386.00 L 183.00,385.00 L 180.00,382.00 L 179.00,379.00 L 177.00,377.00 L 176.00,374.00 L 174.00,372.00 L 174.00,370.00 L 170.00,363.00 L 170.00,359.00 L 169.00,358.00 L 169.00,355.00 L 168.00,354.00 L 168.00,352.00 L 167.00,351.00 L 167.00,349.00 L 166.00,348.00 L 166.00,345.00 L 165.00,344.00 L 165.00,337.00 L 164.00,336.00 L 164.00,316.00 L 165.00,315.00 L 165.00,308.00 L 166.00,307.00 L 166.00,300.00 L 167.00,299.00 L 167.00,297.00 L 168.00,296.00 L 168.00,291.00 L 169.00,290.00 L 169.00,287.00 L 172.00,282.00 L 172.00,280.00 L 175.00,275.00 L 175.00,272.00 L 176.00,271.00 L 178.00,266.00 L 180.00,264.00 L 181.00,261.00 L 185.00,256.00 L 185.00,255.00 L 188.00,251.00 L 188.00,250.00 L 191.00,247.00 L 191.00,246.00 L 200.00,237.00 L 200.00,236.00 L 205.00,231.00 L 205.00,230.00 L 209.00,226.00 L 210.00,226.00 L 219.00,217.00 L 220.00,217.00 L 226.00,211.00 L 227.00,211.00 L 230.00,208.00 L 231.00,208.00 L 234.00,205.00 L 235.00,205.00 L 241.00,200.00 L 248.00,197.00 L 253.00,192.00 L 254.00,192.00 L 255.00,191.00 L 256.00,191.00 L 257.00,190.00 L 258.00,190.00 L 259.00,189.00 L 260.00,189.00 L 261.00,188.00 L 262.00,188.00 L 263.00,187.00 L 264.00,187.00 L 265.00,186.00 L 272.00,183.00 L 274.00,181.00 L 279.00,179.00 L 283.00,176.00 L 285.00,176.00 L 290.00,173.00 L 292.00,173.00 L 303.00,167.00 L 305.00,167.00 L 306.00,166.00 L 309.00,166.00 L 310.00,165.00 L 311.00,165.00 L 314.00,163.00 L 316.00,163.00 L 323.00,159.00 L 326.00,159.00 L 327.00,158.00 L 330.00,158.00 L 335.00,155.00 L 339.00,155.00 L 340.00,154.00 L 341.00,154.00 L 342.00,153.00 L 344.00,153.00 L 345.00,152.00 L 348.00,152.00 L 349.00,151.00 L 353.00,151.00 L 354.00,150.00 L 355.00,150.00 L 356.00,149.00 L 358.00,149.00 L 359.00,148.00 L 363.00,148.00 L 364.00,147.00 L 367.00,147.00 L 368.00,146.00 L 370.00,146.00 L 371.00,145.00 L 374.00,145.00 L 375.00,144.00 L 377.00,144.00 L 378.00,143.00 L 381.00,143.00 L 382.00,142.00 L 387.00,142.00 L 388.00,141.00 L 393.00,141.00 L 394.00,140.00 L 398.00,140.00 L 399.00,139.00 L 403.00,139.00 L 404.00,138.00 L 410.00,138.00 L 411.00,137.00 L 415.00,137.00 L 416.00,136.00 L 422.00,136.00 L 423.00,135.00 L 430.00,135.00 L 431.00,134.00 L 438.00,134.00 L 439.00,133.00 L 448.00,133.00 L 449.00,132.00 L 458.00,132.00 L 459.00,131.00 L 473.00,131.00 L 474.00,130.00 L 539.00,130.00 L 540.00,131.00 L 555.00,131.00 L 556.00,132.00 L 563.00,132.00 L 564.00,133.00 L 577.00,133.00 L 578.00,134.00 L 585.00,134.00 L 586.00,135.00 L 592.00,135.00 L 593.00,136.00 L 599.00,136.00 L 600.00,137.00 L 604.00,137.00 L 605.00,138.00 L 612.00,138.00 L 613.00,139.00 L 616.00,139.00 L 617.00,140.00 L 621.00,140.00 L 622.00,141.00 L 629.00,141.00 L 632.00,143.00 L 636.00,143.00 L 637.00,144.00 L 640.00,144.00 L 641.00,145.00 L 645.00,145.00 L 646.00,146.00 L 650.00,146.00 L 651.00,147.00 L 654.00,147.00 L 657.00,149.00 L 660.00,149.00 L 661.00,150.00 L 665.00,150.00 L 668.00,152.00 L 671.00,152.00 L 672.00,153.00 L 673.00,153.00 L 674.00,154.00 L 676.00,154.00 L 677.00,155.00 L 680.00,155.00 L 681.00,156.00 L 684.00,156.00 L 685.00,157.00 L 686.00,157.00 L 689.00,159.00 L 691.00,159.00 L 696.00,162.00 L 700.00,162.00 L 705.00,165.00 L 707.00,165.00 L 708.00,166.00 L 713.00,167.00 L 714.00,168.00 L 715.00,168.00 L 716.00,169.00 L 717.00,169.00 L 718.00,170.00 L 719.00,170.00 L 730.00,176.00 L 733.00,176.00 L 734.00,177.00 L 739.00,179.00 L 742.00,182.00 L 743.00,182.00 L 744.00,183.00 L 745.00,183.00 L 746.00,184.00 L 753.00,187.00 L 759.00,192.00 L 766.00,195.00 L 769.00,198.00 L 770.00,198.00 L 771.00,199.00 L 776.00,194.00 L 777.00,194.00 L 780.00,191.00 L 781.00,191.00 L 782.00,192.00 L 795.00,182.00 L 791.00,179.00 L 790.00,179.00 L 788.00,177.00 L 787.00,177.00 L 785.00,175.00 L 784.00,175.00 L 782.00,173.00 L 779.00,172.00 L 777.00,170.00 L 776.00,170.00 L 774.00,168.00 L 773.00,168.00 L 765.00,162.00 L 764.00,162.00 L 763.00,161.00 L 762.00,161.00 L 761.00,160.00 L 760.00,160.00 L 759.00,159.00 L 758.00,159.00 L 757.00,158.00 L 756.00,158.00 L 755.00,157.00 L 754.00,157.00 L 753.00,156.00 L 752.00,156.00 L 751.00,155.00 L 750.00,155.00 L 749.00,154.00 L 748.00,154.00 L 747.00,153.00 L 746.00,153.00 L 745.00,152.00 L 744.00,152.00 L 743.00,151.00 L 742.00,151.00 L 731.00,145.00 L 727.00,145.00 L 726.00,144.00 L 725.00,144.00 L 720.00,141.00 L 718.00,141.00 L 711.00,137.00 L 709.00,137.00 L 708.00,136.00 L 705.00,136.00 L 704.00,135.00 L 701.00,135.00 L 696.00,132.00 L 692.00,132.00 L 689.00,130.00 L 684.00,129.00 L 681.00,127.00 L 679.00,127.00 L 678.00,126.00 L 675.00,126.00 L 674.00,125.00 L 671.00,125.00 L 670.00,124.00 L 666.00,124.00 L 665.00,123.00 L 663.00,123.00 L 660.00,121.00 L 655.00,121.00 L 654.00,120.00 L 652.00,120.00 L 651.00,119.00 L 649.00,119.00 L 648.00,118.00 L 642.00,118.00 L 639.00,116.00 L 633.00,116.00 L 630.00,114.00 L 625.00,114.00 L 624.00,113.00 L 619.00,113.00 L 618.00,112.00 L 612.00,112.00 L 611.00,111.00 L 608.00,111.00 L 607.00,110.00 L 600.00,110.00 L 599.00,109.00 L 593.00,109.00 L 592.00,108.00 L 585.00,108.00 L 584.00,107.00 L 576.00,107.00 L 575.00,106.00 L 564.00,106.00 L 563.00,105.00 L 552.00,105.00 L 551.00,104.00 L 530.00,104.00 L 529.00,103.00 L 485.00,103.00 L 484.00,104.00 L 466.00,104.00 L 465.00,105.00 L 454.00,105.00 L 453.00,106.00 L 441.00,106.00 L 440.00,107.00 L 432.00,107.00 L 431.00,108.00 L 426.00,108.00 L 425.00,109.00 L 415.00,109.00 L 414.00,110.00 L 408.00,110.00 L 407.00,111.00 L 405.00,111.00 L 404.00,112.00 L 397.00,112.00 L 396.00,113.00 L 394.00,113.00 L 393.00,114.00 L 389.00,114.00 L 388.00,115.00 L 381.00,115.00 L 380.00,116.00 L 377.00,116.00 L 376.00,117.00 L 374.00,117.00 L 373.00,118.00 L 370.00,118.00 L 369.00,119.00 L 365.00,119.00 L 364.00,120.00 L 360.00,120.00 L 359.00,121.00 L 356.00,121.00 L 355.00,122.00 L 353.00,122.00 L 350.00,124.00 L 346.00,124.00 L 345.00,125.00 L 341.00,125.00 L 336.00,128.00 L 331.00,128.00 L 330.00,129.00 L 328.00,129.00 L 325.00,131.00 L 323.00,131.00 L 322.00,132.00 L 317.00,133.00 L 314.00,135.00 L 312.00,135.00 L 311.00,136.00 L 306.00,137.00 L 303.00,139.00 L 301.00,139.00 L 300.00,140.00 L 295.00,141.00 L 292.00,143.00 L 287.00,144.00 L 286.00,145.00 L 285.00,145.00 L 284.00,146.00 L 283.00,146.00 L 282.00,147.00 L 281.00,147.00 L 280.00,148.00 L 279.00,148.00 L 278.00,149.00 L 277.00,149.00 L 276.00,150.00 L 275.00,150.00 L 274.00,151.00 L 273.00,151.00 L 272.00,152.00 L 271.00,152.00 L 270.00,153.00 L 269.00,153.00 L 268.00,154.00 L 267.00,154.00 L 266.00,155.00 L 265.00,155.00 L 264.00,156.00 L 263.00,156.00 L 262.00,157.00 L 261.00,157.00 L 260.00,158.00 L 259.00,158.00 L 258.00,159.00 L 257.00,159.00 L 256.00,160.00 L 249.00,163.00 L 247.00,165.00 L 244.00,166.00 L 242.00,168.00 L 239.00,169.00 L 237.00,171.00 L 236.00,171.00 L 232.00,174.00 L 229.00,175.00 L 223.00,180.00 L 222.00,180.00 L 216.00,185.00 L 215.00,185.00 L 209.00,190.00 Z"/>
  </g>
  <path id="check" d="M 894.00,156.00 L 886.00,157.00 L 853.00,173.00 L 807.00,203.00 L 806.00,205.00 L 789.00,217.00 L 788.00,219.00 L 777.00,227.00 L 757.00,245.00 L 757.00,246.00 L 713.00,289.00 L 688.00,318.00 L 686.00,319.00 L 666.00,343.00 L 663.00,348.00 L 661.00,349.00 L 658.00,354.00 L 640.00,376.00 L 638.00,380.00 L 633.00,385.00 L 591.00,443.00 L 590.00,446.00 L 583.00,455.00 L 562.00,488.00 L 559.00,491.00 L 558.00,494.00 L 538.00,523.00 L 534.00,531.00 L 523.00,547.00 L 519.00,556.00 L 515.00,561.00 L 513.00,566.00 L 505.00,578.00 L 498.00,592.00 L 488.00,608.00 L 473.00,637.00 L 470.00,637.00 L 468.00,635.00 L 460.00,622.00 L 457.00,619.00 L 456.00,616.00 L 452.00,612.00 L 450.00,608.00 L 440.00,596.00 L 408.00,552.00 L 393.00,534.00 L 390.00,529.00 L 388.00,528.00 L 371.00,508.00 L 363.00,503.00 L 351.00,503.00 L 343.00,507.00 L 340.00,511.00 L 338.00,517.00 L 338.00,522.00 L 340.00,527.00 L 375.00,569.00 L 385.00,584.00 L 422.00,633.00 L 447.00,671.00 L 450.00,674.00 L 458.00,688.00 L 463.00,693.00 L 470.00,696.00 L 477.00,696.00 L 483.00,694.00 L 490.00,688.00 L 508.00,653.00 L 510.00,651.00 L 514.00,642.00 L 516.00,640.00 L 521.00,629.00 L 527.00,620.00 L 532.00,609.00 L 538.00,600.00 L 545.00,586.00 L 566.00,553.00 L 567.00,550.00 L 580.00,531.00 L 582.00,526.00 L 587.00,520.00 L 596.00,504.00 L 612.00,480.00 L 613.00,477.00 L 616.00,474.00 L 619.00,468.00 L 628.00,456.00 L 629.00,453.00 L 660.00,411.00 L 662.00,407.00 L 666.00,403.00 L 676.00,388.00 L 716.00,336.00 L 754.00,291.00 L 756.00,290.00 L 765.00,279.00 L 767.00,278.00 L 798.00,246.00 L 850.00,200.00 L 896.00,164.00 L 897.00,159.00 Z" fill="var(--check)"/>
</svg>
