<?xml version="1.0" encoding="UTF-8"?><svg xmlns="http://www.w3.org/2000/svg" viewBox="0 0 1024 1024" ><rect width="100%" height="100%" fill="var(--bg)"/><style>:root{--bg:transparent;--toast:#efeedd;--check:#efeedd}</style><path d="M 207,191 L 199,199 L 198,199 L 193,204 L 192,204 L 192,205 L 191,206 L 190,206 L 190,207 L 189,208 L 188,208 L 188,209 L 187,210 L 186,210 L 186,211 L 185,212 L 184,212 L 184,213 L 176,221 L 176,222 L 173,225 L 173,226 L 172,227 L 171,227 L 171,228 L 168,231 L 167,234 L 161,241 L 158,248 L 155,251 L 155,252 L 149,263 L 149,266 L 147,269 L 146,274 L 143,279 L 143,283 L 142,284 L 142,287 L 141,288 L 141,291 L 140,292 L 140,296 L 139,297 L 139,303 L 138,304 L 138,311 L 137,312 L 137,338 L 138,339 L 138,347 L 139,348 L 139,353 L 140,354 L 140,358 L 141,359 L 141,362 L 142,363 L 142,366 L 143,367 L 144,372 L 148,379 L 148,381 L 149,382 L 152,389 L 154,391 L 157,398 L 161,402 L 161,403 L 165,407 L 165,408 L 178,421 L 178,422 L 182,426 L 182,427 L 186,432 L 186,433 L 192,444 L 192,446 L 194,449 L 194,452 L 195,453 L 195,456 L 196,457 L 196,460 L 197,461 L 197,466 L 198,467 L 198,474 L 199,475 L 199,493 L 200,494 L 200,512 L 199,513 L 199,539 L 198,540 L 198,559 L 197,560 L 197,578 L 196,579 L 196,593 L 195,594 L 195,613 L 194,614 L 194,634 L 193,635 L 193,657 L 192,658 L 192,745 L 193,746 L 193,758 L 194,759 L 194,767 L 195,768 L 195,775 L 196,776 L 196,782 L 197,783 L 197,788 L 198,789 L 198,792 L 199,793 L 199,796 L 200,797 L 200,800 L 201,801 L 201,805 L 203,808 L 203,811 L 204,812 L 205,817 L 207,820 L 207,822 L 209,825 L 209,827 L 212,831 L 212,833 L 214,835 L 216,840 L 220,844 L 220,845 L 223,848 L 223,849 L 236,862 L 237,862 L 239,864 L 240,864 L 244,868 L 245,868 L 247,870 L 252,872 L 254,874 L 255,874 L 262,878 L 264,878 L 265,879 L 266,879 L 269,881 L 271,881 L 274,883 L 277,883 L 280,885 L 284,885 L 287,887 L 291,887 L 292,888 L 295,888 L 296,889 L 300,889 L 301,890 L 305,890 L 306,891 L 311,891 L 312,892 L 319,892 L 320,893 L 329,893 L 330,894 L 352,894 L 353,895 L 354,894 L 355,895 L 380,895 L 381,896 L 425,896 L 426,897 L 495,897 L 496,898 L 537,898 L 538,897 L 597,897 L 598,896 L 639,896 L 640,895 L 670,895 L 671,894 L 689,894 L 690,893 L 700,893 L 701,892 L 707,892 L 708,891 L 713,891 L 714,890 L 719,890 L 720,889 L 724,889 L 725,888 L 728,888 L 729,887 L 732,887 L 733,886 L 736,886 L 737,885 L 739,885 L 740,884 L 742,884 L 743,883 L 746,883 L 753,879 L 756,879 L 757,878 L 764,875 L 767,872 L 772,870 L 776,866 L 779,865 L 796,848 L 796,847 L 799,844 L 799,843 L 802,839 L 802,838 L 805,835 L 805,834 L 809,827 L 809,825 L 811,823 L 811,821 L 812,820 L 812,817 L 815,812 L 815,808 L 817,805 L 817,802 L 818,801 L 818,798 L 819,797 L 819,794 L 820,793 L 820,788 L 821,787 L 821,782 L 822,781 L 822,776 L 823,775 L 823,767 L 824,766 L 824,758 L 825,757 L 825,743 L 826,742 L 826,661 L 825,660 L 825,639 L 824,638 L 824,619 L 823,618 L 823,603 L 822,602 L 822,583 L 821,582 L 821,563 L 820,562 L 820,542 L 819,541 L 819,517 L 818,516 L 818,485 L 819,484 L 819,472 L 820,471 L 820,464 L 821,463 L 821,459 L 822,458 L 822,455 L 823,454 L 823,452 L 824,451 L 824,448 L 825,447 L 825,446 L 829,439 L 829,437 L 832,433 L 833,430 L 842,420 L 842,419 L 854,407 L 854,406 L 858,402 L 858,401 L 861,398 L 862,395 L 864,393 L 864,392 L 869,383 L 869,381 L 872,376 L 872,374 L 874,371 L 874,368 L 875,367 L 875,364 L 877,361 L 877,357 L 878,356 L 878,352 L 879,351 L 879,343 L 880,342 L 880,311 L 879,310 L 879,302 L 878,301 L 878,296 L 877,295 L 877,292 L 876,291 L 876,287 L 875,286 L 875,284 L 874,283 L 873,278 L 871,275 L 871,272 L 870,271 L 870,269 L 868,266 L 868,264 L 866,262 L 866,260 L 865,259 L 865,258 L 864,257 L 864,256 L 863,255 L 860,248 L 858,246 L 857,243 L 854,240 L 852,235 L 851,234 L 849,234 L 844,239 L 843,239 L 839,243 L 839,244 L 838,245 L 835,246 L 830,251 L 829,251 L 829,252 L 820,261 L 827,270 L 827,271 L 831,278 L 831,280 L 832,281 L 832,282 L 833,283 L 833,285 L 835,288 L 835,292 L 837,295 L 837,298 L 838,299 L 838,302 L 839,303 L 839,308 L 840,309 L 840,314 L 841,315 L 841,336 L 840,337 L 840,343 L 839,344 L 839,348 L 838,349 L 838,352 L 837,353 L 837,356 L 835,359 L 835,362 L 834,363 L 834,365 L 833,366 L 831,371 L 828,374 L 827,377 L 818,387 L 818,388 L 804,403 L 804,404 L 798,411 L 798,412 L 797,413 L 797,414 L 796,415 L 796,416 L 795,417 L 795,418 L 794,419 L 794,420 L 793,421 L 793,422 L 787,433 L 787,436 L 786,437 L 786,440 L 785,441 L 785,444 L 784,445 L 784,448 L 783,449 L 783,452 L 782,453 L 782,458 L 781,459 L 781,465 L 780,466 L 780,484 L 779,485 L 779,510 L 780,511 L 780,545 L 781,546 L 781,564 L 782,565 L 782,583 L 783,584 L 783,601 L 784,602 L 784,616 L 785,617 L 785,639 L 786,640 L 786,658 L 787,659 L 787,739 L 786,740 L 786,753 L 785,754 L 785,761 L 784,762 L 784,770 L 783,771 L 783,776 L 782,777 L 782,781 L 781,782 L 781,786 L 780,787 L 780,790 L 779,791 L 779,794 L 778,795 L 778,797 L 776,800 L 776,803 L 775,804 L 775,806 L 774,807 L 774,808 L 773,809 L 770,816 L 767,819 L 766,822 L 755,833 L 754,833 L 748,838 L 745,839 L 742,842 L 741,842 L 736,845 L 733,845 L 732,846 L 731,846 L 730,847 L 728,847 L 725,849 L 721,849 L 720,850 L 718,850 L 717,851 L 715,851 L 714,852 L 709,852 L 708,853 L 702,853 L 701,854 L 691,854 L 690,855 L 678,855 L 677,856 L 654,856 L 653,857 L 622,857 L 621,858 L 586,858 L 585,859 L 450,859 L 449,858 L 403,858 L 402,857 L 372,857 L 371,856 L 345,856 L 344,855 L 329,855 L 328,854 L 318,854 L 317,853 L 312,853 L 311,852 L 307,852 L 306,851 L 302,851 L 301,850 L 296,849 L 293,847 L 289,847 L 286,845 L 284,845 L 283,844 L 276,841 L 274,839 L 271,838 L 268,835 L 265,834 L 254,824 L 254,823 L 251,820 L 251,819 L 247,814 L 247,813 L 244,808 L 244,806 L 243,805 L 243,803 L 242,802 L 241,797 L 239,794 L 239,790 L 238,789 L 238,786 L 237,785 L 237,781 L 236,780 L 236,776 L 235,775 L 235,769 L 234,768 L 234,762 L 233,761 L 233,753 L 232,752 L 232,740 L 231,739 L 231,715 L 230,714 L 230,697 L 231,696 L 231,659 L 232,658 L 232,636 L 233,635 L 233,620 L 234,619 L 234,603 L 235,602 L 235,584 L 236,583 L 236,560 L 237,559 L 237,538 L 238,537 L 238,472 L 237,471 L 237,461 L 236,460 L 236,454 L 235,453 L 235,450 L 234,449 L 234,446 L 233,445 L 233,442 L 232,441 L 232,438 L 230,435 L 230,432 L 226,425 L 226,423 L 225,422 L 222,415 L 220,413 L 219,410 L 213,403 L 212,400 L 197,384 L 197,383 L 194,380 L 194,379 L 191,376 L 191,375 L 187,370 L 187,369 L 182,360 L 182,357 L 181,356 L 181,353 L 179,350 L 179,346 L 178,345 L 178,341 L 177,340 L 177,334 L 176,333 L 176,319 L 177,318 L 177,310 L 178,309 L 178,303 L 179,302 L 179,299 L 180,298 L 180,295 L 181,294 L 181,290 L 182,289 L 182,288 L 184,285 L 184,283 L 187,278 L 187,275 L 188,274 L 188,273 L 191,270 L 191,269 L 192,268 L 193,265 L 195,263 L 196,260 L 200,256 L 200,255 L 203,252 L 203,251 L 208,246 L 208,245 L 223,230 L 224,230 L 232,222 L 233,222 L 240,216 L 243,215 L 248,210 L 255,207 L 259,203 L 260,203 L 261,202 L 268,199 L 271,196 L 272,196 L 279,192 L 281,192 L 282,191 L 287,189 L 289,187 L 290,187 L 295,184 L 297,184 L 308,178 L 313,177 L 314,176 L 315,176 L 316,175 L 318,175 L 321,173 L 326,172 L 327,171 L 328,171 L 329,170 L 331,170 L 332,169 L 335,169 L 340,166 L 343,166 L 344,165 L 346,165 L 347,164 L 350,164 L 353,162 L 357,162 L 358,161 L 361,161 L 364,159 L 367,159 L 368,158 L 371,158 L 372,157 L 375,157 L 376,156 L 379,156 L 380,155 L 383,155 L 384,154 L 387,154 L 388,153 L 392,153 L 393,152 L 397,152 L 398,151 L 403,151 L 404,150 L 409,150 L 410,149 L 415,149 L 416,148 L 422,148 L 423,147 L 430,147 L 431,146 L 438,146 L 439,145 L 448,145 L 449,144 L 458,144 L 459,143 L 473,143 L 474,142 L 539,142 L 540,143 L 555,143 L 556,144 L 566,144 L 567,145 L 576,145 L 577,146 L 585,146 L 586,147 L 592,147 L 593,148 L 599,148 L 600,149 L 605,149 L 606,150 L 611,150 L 612,151 L 617,151 L 618,152 L 622,152 L 623,153 L 627,153 L 628,154 L 632,154 L 633,155 L 636,155 L 637,156 L 640,156 L 641,157 L 644,157 L 645,158 L 649,158 L 652,160 L 655,160 L 656,161 L 660,161 L 663,163 L 666,163 L 669,165 L 672,165 L 673,166 L 678,167 L 681,169 L 683,169 L 684,170 L 687,170 L 692,173 L 695,173 L 698,175 L 700,175 L 703,177 L 705,177 L 708,179 L 710,179 L 711,180 L 712,180 L 713,181 L 714,181 L 725,187 L 728,187 L 729,188 L 732,189 L 735,192 L 736,192 L 737,193 L 738,193 L 739,194 L 746,197 L 752,202 L 759,205 L 761,207 L 763,205 L 764,205 L 768,201 L 769,201 L 771,199 L 772,199 L 774,197 L 775,197 L 778,194 L 779,194 L 784,190 L 787,189 L 795,182 L 794,181 L 793,181 L 790,178 L 789,178 L 786,175 L 781,173 L 778,170 L 777,170 L 776,169 L 773,168 L 771,166 L 768,165 L 765,162 L 764,162 L 763,161 L 762,161 L 761,160 L 760,160 L 759,159 L 758,159 L 757,158 L 756,158 L 755,157 L 754,157 L 753,156 L 752,156 L 751,155 L 750,155 L 749,154 L 748,154 L 747,153 L 746,153 L 745,152 L 744,152 L 743,151 L 742,151 L 731,145 L 728,145 L 725,143 L 723,143 L 720,141 L 718,141 L 711,137 L 708,137 L 705,135 L 702,135 L 701,134 L 699,134 L 696,132 L 693,132 L 692,131 L 690,131 L 689,130 L 687,130 L 686,129 L 681,128 L 678,126 L 674,126 L 671,124 L 667,124 L 666,123 L 663,123 L 660,121 L 656,121 L 655,120 L 652,120 L 651,119 L 648,119 L 647,118 L 643,118 L 642,117 L 639,117 L 638,116 L 634,116 L 633,115 L 630,115 L 629,114 L 625,114 L 624,113 L 619,113 L 618,112 L 613,112 L 612,111 L 607,111 L 606,110 L 600,110 L 599,109 L 593,109 L 592,108 L 585,108 L 584,107 L 576,107 L 575,106 L 565,106 L 564,105 L 552,105 L 551,104 L 530,104 L 529,103 L 485,103 L 484,104 L 466,104 L 465,105 L 454,105 L 453,106 L 441,106 L 440,107 L 432,107 L 431,108 L 424,108 L 423,109 L 417,109 L 416,110 L 409,110 L 408,111 L 404,111 L 403,112 L 398,112 L 397,113 L 393,113 L 392,114 L 387,114 L 386,115 L 382,115 L 381,116 L 377,116 L 376,117 L 373,117 L 372,118 L 369,118 L 368,119 L 365,119 L 364,120 L 361,120 L 360,121 L 357,121 L 356,122 L 353,122 L 350,124 L 346,124 L 345,125 L 342,125 L 341,126 L 339,126 L 336,128 L 332,128 L 331,129 L 329,129 L 328,130 L 323,131 L 320,133 L 317,133 L 316,134 L 314,134 L 309,137 L 306,137 L 305,138 L 303,138 L 302,139 L 301,139 L 300,140 L 298,140 L 291,144 L 288,144 L 281,148 L 279,148 L 278,149 L 277,149 L 276,150 L 275,150 L 274,151 L 273,151 L 272,152 L 271,152 L 270,153 L 269,153 L 268,154 L 267,154 L 266,155 L 265,155 L 264,156 L 263,156 L 262,157 L 261,157 L 260,158 L 253,161 L 251,163 L 246,165 L 243,168 L 236,171 L 231,175 L 228,176 L 221,182 L 220,182 L 218,184 L 217,184 L 215,186 L 214,186 L 210,190 Z"/><path d="M 262,237 L 258,240 L 257,240 L 254,244 L 253,244 L 247,250 L 246,250 L 238,258 L 238,259 L 237,259 L 237,260 L 231,266 L 231,267 L 228,269 L 228,270 L 227,271 L 227,272 L 219,282 L 212,296 L 212,298 L 211,299 L 211,301 L 210,302 L 210,304 L 209,307 L 209,311 L 208,312 L 208,315 L 207,316 L 207,322 L 206,323 L 206,348 L 207,349 L 207,353 L 208,354 L 209,361 L 210,362 L 210,364 L 210,365 L 210,367 L 211,368 L 211,370 L 213,372 L 214,376 L 216,378 L 219,385 L 229,396 L 229,397 L 237,404 L 237,405 L 239,407 L 241,411 L 244,414 L 253,431 L 253,433 L 254,434 L 254,435 L 255,436 L 255,438 L 256,442 L 256,445 L 257,446 L 258,453 L 259,454 L 259,459 L 260,460 L 260,465 L 261,466 L 261,477 L 262,478 L 262,513 L 261,514 L 261,536 L 260,536 L 260,555 L 259,555 L 259,573 L 258,574 L 258,587 L 257,588 L 257,605 L 256,606 L 256,623 L 256,624 L 256,654 L 255,655 L 255,685 L 256,686 L 256,711 L 256,712 L 256,722 L 257,722 L 258,735 L 259,736 L 259,740 L 260,741 L 260,745 L 261,746 L 261,749 L 262,750 L 263,757 L 264,758 L 265,765 L 268,769 L 268,771 L 270,775 L 272,777 L 273,779 L 275,781 L 276,785 L 279,787 L 279,788 L 286,796 L 290,797 L 293,800 L 307,807 L 309,807 L 310,808 L 312,808 L 312,809 L 314,809 L 318,811 L 321,811 L 321,812 L 328,813 L 329,814 L 339,814 L 340,815 L 347,815 L 348,816 L 358,816 L 359,817 L 378,817 L 379,818 L 411,818 L 412,819 L 448,819 L 449,820 L 579,820 L 580,819 L 613,819 L 614,818 L 642,818 L 643,817 L 662,817 L 663,816 L 679,815 L 680,814 L 684,814 L 685,814 L 689,814 L 690,813 L 692,813 L 693,812 L 697,812 L 698,811 L 700,811 L 700,810 L 708,808 L 710,806 L 712,806 L 723,801 L 732,794 L 733,794 L 733,793 L 735,792 L 735,791 L 737,790 L 737,789 L 741,785 L 741,784 L 745,779 L 749,770 L 749,768 L 751,766 L 751,764 L 752,763 L 752,761 L 754,758 L 755,751 L 756,750 L 756,742 L 757,741 L 758,731 L 759,730 L 759,722 L 760,722 L 760,713 L 761,712 L 761,688 L 762,687 L 762,661 L 761,660 L 761,625 L 760,624 L 759,590 L 758,589 L 758,576 L 757,575 L 757,559 L 756,558 L 756,543 L 756,542 L 756,521 L 755,520 L 755,479 L 756,478 L 756,467 L 756,466 L 756,460 L 757,459 L 757,455 L 758,454 L 758,451 L 759,450 L 760,443 L 761,442 L 763,435 L 765,432 L 765,427 L 767,425 L 769,420 L 772,417 L 772,416 L 776,410 L 776,409 L 780,406 L 780,405 L 784,400 L 784,399 L 786,398 L 786,398 L 796,387 L 796,386 L 802,379 L 802,377 L 803,375 L 804,370 L 807,365 L 807,362 L 808,361 L 808,359 L 809,358 L 809,354 L 810,353 L 810,347 L 811,346 L 811,328 L 810,327 L 810,321 L 809,320 L 809,315 L 808,314 L 807,308 L 805,305 L 805,302 L 802,295 L 802,293 L 800,289 L 798,287 L 798,286 L 796,284 L 793,277 L 791,275 L 778,286 L 780,290 L 782,292 L 789,306 L 790,313 L 791,314 L 792,319 L 793,320 L 793,325 L 793,326 L 793,348 L 793,349 L 793,354 L 792,355 L 792,358 L 791,359 L 790,363 L 788,366 L 788,368 L 784,374 L 784,375 L 781,378 L 781,379 L 778,381 L 778,382 L 776,383 L 776,384 L 765,396 L 765,397 L 760,403 L 757,408 L 756,410 L 751,419 L 751,421 L 749,423 L 749,425 L 747,427 L 747,429 L 747,430 L 747,432 L 746,433 L 746,435 L 744,438 L 743,445 L 742,446 L 742,449 L 741,450 L 741,454 L 740,455 L 740,461 L 739,462 L 739,471 L 738,472 L 738,532 L 739,533 L 739,554 L 740,555 L 740,567 L 741,568 L 741,587 L 742,588 L 742,602 L 743,603 L 743,620 L 744,621 L 744,646 L 745,647 L 745,696 L 744,697 L 744,712 L 743,713 L 743,722 L 742,723 L 742,731 L 741,731 L 741,736 L 740,737 L 740,740 L 739,741 L 739,746 L 738,747 L 738,749 L 737,750 L 737,756 L 735,759 L 734,763 L 731,768 L 728,773 L 728,774 L 718,784 L 715,785 L 713,786 L 710,787 L 707,790 L 705,790 L 702,792 L 700,792 L 700,793 L 698,793 L 697,794 L 695,794 L 691,796 L 689,796 L 688,796 L 679,797 L 678,798 L 673,798 L 672,799 L 663,799 L 663,800 L 650,800 L 649,801 L 618,801 L 617,802 L 591,802 L 590,803 L 543,803 L 542,804 L 493,804 L 492,803 L 437,803 L 436,802 L 404,802 L 404,801 L 373,801 L 372,800 L 358,800 L 358,799 L 349,799 L 348,798 L 341,798 L 340,797 L 336,797 L 335,796 L 331,796 L 330,796 L 323,795 L 322,794 L 315,792 L 312,790 L 311,790 L 309,788 L 302,786 L 300,783 L 299,783 L 290,774 L 290,773 L 284,766 L 284,764 L 282,759 L 282,758 L 281,757 L 281,755 L 279,751 L 279,749 L 278,748 L 278,744 L 277,743 L 277,740 L 276,739 L 276,734 L 275,733 L 275,729 L 275,728 L 275,722 L 274,721 L 274,712 L 273,712 L 273,696 L 272,695 L 272,646 L 273,645 L 273,620 L 274,620 L 274,601 L 275,601 L 275,583 L 275,583 L 275,568 L 276,567 L 276,554 L 277,553 L 277,529 L 278,528 L 278,469 L 277,468 L 276,453 L 275,453 L 275,449 L 275,448 L 274,441 L 272,437 L 272,435 L 271,434 L 269,426 L 262,412 L 262,410 L 260,408 L 260,407 L 258,406 L 255,399 L 252,397 L 252,396 L 235,377 L 235,376 L 231,371 L 228,364 L 228,362 L 227,361 L 227,360 L 225,356 L 225,353 L 224,352 L 224,349 L 223,348 L 223,323 L 224,322 L 225,314 L 226,313 L 227,307 L 229,302 L 229,300 L 231,298 L 232,295 L 234,293 L 238,286 L 244,278 L 244,277 L 249,272 L 249,271 L 251,270 L 251,269 L 253,268 L 253,268 L 255,267 L 255,266 L 256,265 L 257,263 L 258,263 L 265,257 L 265,257 L 268,254 L 269,254 L 273,250 L 274,250 L 279,246 L 280,246 L 290,239 L 293,238 L 297,234 L 305,231 L 307,229 L 318,223 L 320,223 L 326,220 L 328,220 L 339,214 L 343,213 L 346,212 L 350,211 L 353,209 L 356,209 L 358,207 L 361,207 L 364,205 L 367,205 L 367,204 L 369,204 L 373,203 L 376,203 L 376,202 L 379,202 L 380,201 L 383,201 L 384,200 L 386,200 L 387,199 L 390,199 L 391,198 L 394,198 L 395,197 L 398,197 L 399,196 L 402,196 L 403,195 L 406,195 L 407,194 L 415,194 L 416,193 L 422,193 L 423,192 L 426,192 L 427,191 L 440,190 L 441,189 L 447,189 L 448,188 L 456,188 L 457,187 L 465,187 L 466,186 L 480,186 L 481,185 L 534,185 L 535,186 L 550,186 L 551,187 L 559,187 L 560,188 L 574,189 L 575,190 L 587,191 L 588,192 L 592,192 L 593,193 L 598,193 L 599,194 L 602,194 L 603,194 L 608,194 L 608,195 L 611,195 L 612,196 L 620,197 L 621,198 L 624,198 L 625,199 L 627,199 L 628,200 L 631,200 L 632,201 L 638,202 L 639,203 L 641,203 L 645,204 L 647,204 L 650,206 L 653,206 L 654,207 L 655,207 L 656,208 L 658,208 L 659,209 L 661,209 L 662,210 L 669,212 L 672,213 L 673,213 L 676,215 L 678,215 L 682,218 L 684,218 L 687,220 L 689,220 L 697,224 L 699,224 L 700,226 L 704,227 L 708,230 L 714,232 L 719,236 L 721,237 L 723,239 L 727,240 L 731,236 L 732,236 L 733,234 L 734,234 L 737,231 L 738,231 L 739,230 L 739,228 L 738,228 L 736,225 L 730,222 L 728,221 L 724,219 L 722,217 L 719,216 L 717,214 L 699,205 L 697,205 L 692,203 L 691,203 L 688,201 L 686,201 L 683,199 L 682,199 L 677,196 L 670,194 L 667,193 L 665,193 L 662,191 L 659,191 L 658,190 L 656,190 L 655,189 L 654,189 L 650,187 L 644,186 L 640,185 L 634,184 L 630,182 L 626,182 L 626,181 L 623,181 L 622,180 L 618,180 L 617,179 L 614,179 L 613,178 L 609,178 L 608,177 L 605,177 L 604,176 L 599,176 L 599,175 L 594,175 L 593,175 L 589,175 L 588,174 L 582,174 L 581,173 L 568,172 L 567,171 L 547,170 L 546,169 L 531,169 L 530,168 L 487,168 L 486,169 L 468,169 L 467,170 L 456,170 L 455,171 L 447,171 L 446,172 L 440,172 L 439,173 L 426,174 L 425,175 L 421,175 L 420,175 L 415,175 L 414,176 L 410,176 L 409,177 L 401,178 L 400,179 L 393,180 L 392,181 L 389,181 L 388,182 L 381,183 L 377,185 L 371,185 L 367,187 L 365,187 L 364,188 L 362,188 L 361,189 L 359,189 L 356,191 L 353,191 L 352,192 L 348,193 L 345,194 L 340,195 L 338,197 L 333,198 L 324,203 L 322,203 L 320,204 L 318,204 L 308,210 L 306,210 L 304,212 L 302,212 L 301,213 L 299,213 L 297,215 L 293,217 L 291,219 L 289,219 L 287,221 L 282,223 L 280,225 L 277,226 L 275,228 L 269,231 L 263,237 Z"/><path d="M 894,156 L 886,157 L 870,165 L 868,165 L 864,167 L 862,169 L 853,173 L 851,175 L 848,176 L 846,178 L 838,182 L 835,185 L 834,185 L 829,189 L 826,190 L 823,193 L 822,193 L 820,195 L 819,195 L 817,197 L 816,197 L 814,199 L 807,203 L 806,205 L 802,207 L 794,214 L 793,214 L 790,217 L 789,217 L 788,219 L 787,219 L 783,223 L 782,223 L 778,227 L 777,227 L 758,245 L 757,245 L 757,246 L 754,249 L 753,249 L 753,250 L 751,251 L 751,252 L 749,253 L 749,254 L 747,255 L 717,285 L 717,286 L 715,287 L 714,289 L 713,289 L 713,290 L 704,299 L 704,300 L 696,308 L 696,309 L 694,310 L 694,311 L 688,317 L 688,318 L 686,319 L 686,320 L 681,325 L 681,326 L 679,327 L 679,328 L 674,333 L 674,334 L 666,343 L 666,344 L 663,347 L 663,348 L 661,349 L 661,350 L 658,353 L 658,354 L 654,358 L 654,359 L 651,362 L 651,363 L 640,376 L 638,380 L 633,385 L 633,386 L 630,389 L 628,393 L 624,397 L 624,398 L 609,417 L 607,421 L 602,427 L 601,430 L 598,433 L 594,440 L 591,443 L 590,446 L 588,448 L 586,452 L 583,455 L 583,456 L 579,461 L 578,464 L 575,467 L 572,473 L 569,476 L 569,477 L 567,479 L 566,482 L 564,484 L 562,488 L 559,491 L 558,494 L 546,511 L 545,514 L 542,517 L 542,518 L 538,523 L 534,531 L 532,533 L 532,534 L 528,539 L 527,542 L 523,547 L 519,556 L 515,561 L 513,566 L 511,568 L 510,571 L 505,578 L 498,592 L 496,594 L 494,599 L 492,601 L 490,606 L 488,608 L 484,617 L 482,619 L 473,637 L 470,637 L 468,635 L 468,634 L 466,632 L 466,631 L 464,629 L 460,622 L 457,619 L 456,616 L 452,612 L 450,608 L 447,605 L 447,604 L 444,601 L 444,600 L 440,596 L 440,595 L 437,592 L 435,588 L 428,580 L 428,579 L 416,564 L 416,563 L 408,553 L 408,552 L 404,548 L 404,547 L 401,544 L 401,543 L 393,534 L 393,533 L 390,530 L 390,529 L 388,528 L 388,527 L 371,509 L 371,508 L 370,508 L 367,505 L 363,503 L 351,503 L 343,507 L 343,508 L 340,511 L 339,513 L 339,516 L 338,517 L 338,522 L 339,523 L 340,527 L 348,536 L 348,537 L 353,542 L 353,543 L 358,548 L 358,549 L 362,553 L 362,554 L 366,558 L 366,559 L 375,569 L 375,570 L 383,580 L 385,584 L 388,587 L 388,588 L 403,607 L 405,611 L 417,626 L 419,630 L 422,633 L 422,634 L 424,636 L 426,640 L 429,643 L 430,646 L 433,649 L 433,650 L 435,652 L 435,653 L 437,655 L 437,656 L 439,658 L 439,659 L 441,661 L 441,662 L 443,664 L 447,671 L 450,674 L 451,677 L 455,682 L 458,688 L 463,693 L 467,695 L 469,695 L 470,696 L 477,696 L 478,695 L 481,695 L 483,694 L 490,688 L 501,666 L 503,664 L 508,653 L 510,651 L 514,642 L 516,640 L 521,629 L 523,627 L 525,622 L 527,620 L 532,609 L 534,607 L 536,602 L 538,600 L 545,586 L 547,584 L 548,581 L 550,579 L 554,571 L 558,566 L 562,558 L 566,553 L 567,550 L 569,548 L 569,547 L 573,542 L 574,539 L 580,531 L 582,526 L 587,520 L 588,517 L 592,512 L 596,504 L 598,502 L 598,501 L 602,496 L 603,493 L 607,488 L 608,485 L 612,480 L 613,477 L 616,474 L 619,468 L 628,456 L 629,453 L 632,450 L 634,446 L 637,443 L 641,436 L 644,433 L 646,429 L 652,422 L 654,418 L 660,411 L 662,407 L 666,403 L 666,402 L 674,392 L 676,388 L 679,385 L 679,384 L 682,381 L 682,380 L 685,377 L 685,376 L 688,373 L 688,372 L 691,369 L 691,368 L 695,364 L 695,363 L 698,360 L 698,359 L 701,356 L 701,355 L 705,351 L 705,350 L 708,347 L 708,346 L 716,337 L 716,336 L 721,331 L 721,330 L 725,326 L 725,325 L 727,324 L 727,323 L 732,318 L 732,317 L 742,306 L 742,305 L 749,298 L 749,297 L 754,292 L 754,291 L 756,290 L 756,289 L 765,280 L 765,279 L 767,278 L 767,277 L 796,248 L 797,248 L 798,246 L 799,246 L 814,231 L 815,231 L 820,226 L 821,226 L 822,224 L 823,224 L 830,217 L 831,217 L 837,211 L 838,211 L 843,206 L 844,206 L 850,200 L 851,200 L 861,191 L 862,191 L 865,188 L 866,188 L 870,184 L 871,184 L 875,180 L 876,180 L 879,177 L 880,177 L 883,174 L 884,174 L 887,171 L 888,171 L 896,164 L 897,162 L 897,159 Z" fill="var(--check)"/></svg>